<svg width="800" height="651" viewBox="0 0 800 651" fill="none" xmlns="http://www.w3.org/2000/svg">
<g clip-path="url(#clip0_411_434)">
<path opacity="0.18" d="M345.025 175.431C323.307 197.687 316.087 230.013 297.65 254.962C276.099 284.143 238.814 304.177 231.036 339.427C222.513 378.245 254.38 413.831 286.522 437.876C302 449.466 318.624 460.642 328.695 476.993C334.994 487.226 338.344 498.902 343.389 509.79C359.396 544.54 394.771 571.056 433.574 572.99C472.377 574.923 512.051 549.762 522.563 513.05C527.696 495.103 526.413 475.021 536.356 459.19C549.365 438.425 576.687 432.019 596.446 417.255C634.24 389.036 636.327 325.702 600.473 295.107C569.036 268.311 516.45 264.801 498.778 227.781C493.987 217.75 492.625 206.468 488.433 196.186C466.616 142.72 382.466 137.055 345.025 175.431Z" fill="#167FFC"/>
<path d="M413.383 312.122C425.021 312.122 434.455 302.859 434.455 291.433C434.455 280.008 425.021 270.745 413.383 270.745C401.746 270.745 392.312 280.008 392.312 291.433C392.312 302.859 401.746 312.122 413.383 312.122Z" fill="#3D3D56"/>
<path d="M484.74 447.966C484.74 447.966 483.555 473.934 481.85 478.965C480.146 483.995 482.173 486.303 476.825 487.621C471.476 488.938 473.357 460.633 473.357 460.633L475.159 449.784L484.74 447.966Z" fill="url(#paint0_linear_411_434)"/>
<path d="M428.812 455.516L441.185 526.622H451.765L454.41 485.659L456.849 537.086H468.458C468.458 537.086 478.44 480.754 476.599 470.385C476.093 466.967 474.997 463.659 473.356 460.604L428.812 455.516Z" fill="#23233A"/>
<path d="M436.111 344.659C435.68 339.167 435.984 333.329 438.991 328.684C440.216 326.816 441.826 325.22 443.717 324.001C445.609 322.782 447.74 321.965 449.973 321.605C456.409 320.643 462.708 323.529 468.586 326.318C477.206 330.473 485.886 334.666 493.468 340.427C501.05 346.188 507.565 353.739 510.435 362.731C511.725 367.11 512.414 371.639 512.483 376.197C512.717 380.448 512.417 384.712 511.591 388.892C510.1 395.295 506.868 401.181 502.24 405.923C497.611 410.665 491.76 414.087 485.308 415.823C470.613 419.574 453.872 414.274 440.578 421.439C439.707 422.034 438.695 422.398 437.639 422.497C436.922 422.43 436.242 422.153 435.687 421.702C435.131 421.251 434.726 420.647 434.524 419.968C434.147 418.601 434.147 417.161 434.524 415.794C435.454 411.548 437.63 407.663 440.784 404.618C444.839 400.722 450.247 398.472 454.675 395C455.428 394.507 456.004 393.793 456.321 392.961C456.85 391.037 454.812 389.45 452.941 388.738C451.07 388.027 448.836 387.392 448.092 385.574C447.484 384.103 448.092 382.467 448.513 380.929C450.208 374.196 446.554 369.676 442.782 364.684C438.403 358.913 436.66 351.7 436.111 344.659Z" fill="#3D3D56"/>
<path d="M468.733 346.65C468.733 346.65 475.336 357.489 482.928 364.664C490.52 371.839 503.451 384.737 495.212 394.528C490.263 400.407 483.96 405.045 476.825 408.061L460.103 391.566V364.636L468.733 346.65Z" fill="#23233A"/>
<path d="M410.778 337.023L426.726 335.859C426.726 335.859 422.249 366.252 444.017 376.12C465.784 385.988 479.175 388.046 480.655 395.663C482.134 403.281 487.894 447.245 487.894 447.245L476.932 449.755L476.599 415.755L477.02 458.642C477.02 458.642 453.274 471.722 446.436 469.145C439.598 466.567 425.247 464.422 425.59 442.57C425.933 420.718 436.366 405.253 425.041 388.623C413.717 371.994 410.484 344.9 410.778 337.023Z" fill="#167FFC"/>
<path d="M410.778 337.023L426.726 335.859C426.726 335.859 422.249 366.252 444.017 376.12C465.784 385.988 479.175 388.046 480.655 395.663C482.134 403.281 487.894 447.245 487.894 447.245L476.932 449.755L476.599 415.755L477.02 458.642C477.02 458.642 453.274 471.722 446.436 469.145C439.598 466.567 425.247 464.422 425.59 442.57C425.933 420.718 436.366 405.253 425.041 388.623C413.717 371.994 410.484 344.9 410.778 337.023Z" fill="url(#paint1_linear_411_434)"/>
<path d="M448.748 378.245C448.748 378.245 449.355 387.286 455.272 387.065C461.189 386.843 461.199 383.939 461.199 383.939L464.961 368.185L448.748 369.146C448.748 369.146 450.59 375.821 448.748 378.245Z" fill="url(#paint2_linear_411_434)"/>
<path d="M449.483 373.282C449.483 373.282 448.738 377.938 451.785 379.255C454.831 380.573 459.739 378.919 460.925 377.591L461.199 383.901L463.942 372.407L449.483 373.282Z" fill="#595BD4"/>
<path d="M443.673 346.343C443.673 346.343 440.255 370.272 452.539 375.11C464.824 379.948 468.585 366.963 470.172 360.731C471.759 354.499 467.165 332.166 457.437 335.638C451.742 337.563 446.886 341.34 443.673 346.343Z" fill="url(#paint3_linear_411_434)"/>
<path d="M414.805 336.734C414.805 336.734 415.951 328.366 415.98 328.212C416.082 327.436 415.966 326.646 415.645 325.93C415.324 325.213 414.81 324.595 414.158 324.144C412.983 323.278 411.689 321.258 411.689 316.594C411.689 311.929 416.725 306.88 418.802 308.899C420.878 310.919 420.888 312.516 422.818 312.814C424.748 313.112 423.259 317.921 422.818 319.546C422.377 321.172 425.189 336.003 425.189 336.003L414.805 336.734Z" fill="url(#paint4_linear_411_434)"/>
<path d="M476.599 415.794L482.966 448.37L476.932 449.755L476.599 415.794Z" fill="url(#paint5_linear_411_434)"/>
<path d="M456.85 537.086C456.85 537.086 454.097 563.728 458.613 585.378H461.758L468.458 537.086H456.85ZM441.186 526.622L447.494 580.953L449.806 579.992C449.806 579.992 454.136 541.52 453.784 537.807C453.431 534.095 451.766 526.602 451.766 526.602L441.186 526.622Z" fill="#23233A"/>
<path d="M449.806 580.011C449.806 580.011 451.207 582.339 451.05 583.993C450.933 585.128 442.939 594.861 437.228 600.113C431.056 605.787 425.07 603.69 425.07 603.69C422.837 603.469 421.681 598.429 423.385 596.958C427.1 593.833 431.275 591.278 435.768 589.379C446.005 585.128 447.523 580.915 447.523 580.915L449.806 580.011ZM458.613 585.378C457.998 587.268 457.775 589.259 457.956 591.235C458.348 594.053 470.692 607.845 470.692 607.845C470.692 607.845 480.801 614.289 484.348 608.749C487.894 603.21 473.885 595.861 471.103 594.323C468.321 592.784 461.757 585.387 461.757 585.387L458.613 585.378Z" fill="#23233A"/>
<path d="M387.894 259.454C389.236 263.674 391.895 267.374 395.495 270.03C399.095 272.686 403.455 274.164 407.957 274.256C413.59 274.256 419.928 272.149 425.806 265.176C441.48 246.594 412.63 213.845 451.492 174.248C490.353 134.651 494.399 64.4589 424.601 59.7942C371.299 56.2548 349.493 88.802 343.36 109.173V129.823L380.802 144.25C380.802 144.25 395.124 101.584 418.703 107.018C442.283 112.453 420.075 150.713 405.194 165.255C372.406 197.312 381.889 241.131 387.894 259.454Z" fill="#3D3D56"/>
<path d="M387.894 233.302C389.245 237.517 391.907 241.211 395.505 243.866C399.103 246.52 403.457 248.003 407.957 248.104C413.59 248.104 419.928 245.594 425.806 238.63C441.48 220.039 410.631 201.563 449.503 161.965C488.374 122.368 494.428 43.8471 424.63 39.2113C354.832 34.5754 343.39 109.201 343.39 109.201L380.831 123.628C380.831 123.628 395.124 81.011 418.703 86.4259C442.283 91.8408 420.075 130.111 405.194 144.663C372.406 176.691 381.889 214.98 387.894 233.302Z" fill="#167FFC"/>
<path d="M413.383 298.589C425.021 298.589 434.455 289.326 434.455 277.901C434.455 266.475 425.021 257.212 413.383 257.212C401.746 257.212 392.312 266.475 392.312 277.901C392.312 289.326 401.746 298.589 413.383 298.589Z" fill="#167FFC"/>
<path d="M329.361 287.567C331.455 283.168 329.52 277.936 325.04 275.881C320.561 273.825 315.232 275.724 313.138 280.122C311.044 284.521 312.978 289.753 317.458 291.809C321.938 293.864 327.267 291.965 329.361 287.567Z" fill="#3D3D56"/>
<path d="M306.359 274.717C307.522 276.211 309.131 277.309 310.962 277.857C312.793 278.406 314.753 278.377 316.567 277.776C318.82 276.987 321.034 275.227 322.356 271.601C325.863 261.983 309.504 252.971 319.192 231.61C328.881 210.248 320.113 181.596 291.547 189.714C269.721 195.889 265.812 211.999 266.371 221.02L269.417 229.253L286.502 229.677C286.502 229.677 285.914 210.604 296.142 209.411C306.369 208.219 303.146 226.676 299.345 234.611C290.979 252.096 301.245 268.254 306.359 274.717Z" fill="#3D3D56"/>
<path d="M302.5 264.262C303.658 265.758 305.266 266.858 307.096 267.407C308.927 267.956 310.886 267.926 312.698 267.321C314.961 266.532 317.116 264.618 318.429 260.992C321.946 251.374 306.899 248.345 316.577 226.983C326.256 205.622 317.077 173.392 288.501 181.48C259.926 189.569 266.42 221.02 266.42 221.02L283.505 221.434C283.505 221.434 282.927 202.371 293.145 201.178C303.362 199.985 300.149 218.442 296.348 226.368C287.972 243.853 297.377 257.799 302.5 264.262Z" fill="#167FFC"/>
<path d="M323.197 286.338C327.639 284.204 329.477 278.938 327.303 274.578C325.129 270.217 319.766 268.412 315.324 270.546C310.883 272.681 309.045 277.946 311.219 282.307C313.393 286.668 318.755 288.472 323.197 286.338Z" fill="#167FFC"/>
<path d="M281.801 368.175C282.174 369.874 282.026 371.643 281.376 373.259C280.726 374.875 279.603 376.266 278.149 377.255C276.694 378.245 274.974 378.789 273.204 378.819C271.435 378.85 269.696 378.364 268.207 377.425C266.718 376.485 265.547 375.134 264.84 373.541C264.133 371.948 263.923 370.185 264.236 368.475C264.549 366.765 265.371 365.184 266.599 363.933C267.826 362.681 269.404 361.815 271.133 361.443C272.284 361.194 273.473 361.171 274.633 361.375C275.793 361.579 276.901 362.006 277.892 362.632C278.884 363.257 279.739 364.069 280.41 365.021C281.081 365.972 281.553 367.044 281.801 368.175Z" fill="#3D3D56"/>
<path d="M259.504 359.067C260.453 360.699 261.902 361.998 263.644 362.778C265.386 363.558 267.334 363.781 269.212 363.414C271.553 362.924 273.993 361.491 275.775 358.047C280.546 348.93 265.529 337.917 277.98 317.989C290.431 298.06 285.582 268.562 256.173 272.899C233.71 276.208 227.686 291.674 227.039 300.686L228.998 309.246L245.848 311.881C245.848 311.881 247.807 292.905 258.113 293.04C268.418 293.174 262.746 311.054 257.927 318.421C247.278 334.666 255.301 352.007 259.504 359.067Z" fill="#3D3D56"/>
<path d="M257.074 348.208C258.025 349.84 259.473 351.137 261.215 351.917C262.957 352.697 264.904 352.921 266.782 352.556C269.124 352.065 271.514 350.44 273.307 347.025C278.078 337.907 263.559 333.002 276.01 313.074C288.462 293.145 283.661 260.002 254.253 264.34C224.845 268.677 227.039 300.686 227.039 300.686L243.889 303.302C243.889 303.302 245.848 284.326 256.153 284.46C266.459 284.595 260.787 302.475 255.967 309.842C245.368 326.106 252.862 341.149 257.074 348.208Z" fill="#167FFC"/>
<path d="M272.449 373.222C277.38 372.86 281.079 368.642 280.711 363.801C280.343 358.959 276.047 355.327 271.115 355.689C266.184 356.05 262.485 360.268 262.853 365.11C263.221 369.951 267.517 373.583 272.449 373.222Z" fill="#167FFC"/>
<path d="M543.899 302.109C543.504 303.804 542.606 305.345 541.319 306.539C540.032 307.733 538.414 308.525 536.668 308.816C534.923 309.106 533.128 308.883 531.512 308.172C529.896 307.462 528.531 306.297 527.589 304.826C526.647 303.354 526.171 301.641 526.22 299.903C526.27 298.165 526.843 296.481 527.867 295.063C528.891 293.645 530.321 292.557 531.975 291.937C533.629 291.317 535.433 291.191 537.159 291.577C539.475 292.098 541.485 293.499 542.749 295.474C544.012 297.449 544.426 299.835 543.899 302.109Z" fill="#3D3D56"/>
<path d="M527.706 284.528C527.852 286.398 528.593 288.177 529.823 289.612C531.053 291.048 532.711 292.068 534.563 292.53C536.885 293.068 539.726 292.77 542.832 290.433C551.109 284.191 542.332 267.937 562.258 255.145C582.183 242.353 590.667 213.643 562.169 205.228C540.422 198.793 528.235 210.248 523.729 218.125L521.77 226.666L535.896 236.111C535.896 236.111 545.937 219.76 555.185 224.223C564.432 228.686 551.531 242.449 543.958 247.095C527.275 257.328 527.001 276.372 527.706 284.528Z" fill="#3D3D56"/>
<path d="M530.234 273.688C530.379 275.559 531.119 277.338 532.349 278.774C533.58 280.21 535.239 281.23 537.091 281.69C539.423 282.238 542.303 281.767 545.408 279.43C553.686 273.188 542.695 262.656 562.63 249.864C582.566 237.072 592.636 205.121 564.227 196.677C535.818 188.232 523.798 218.125 523.798 218.125L537.924 227.57C537.924 227.57 547.965 211.219 557.213 215.672C566.461 220.126 553.559 233.947 545.996 238.554C529.264 248.787 529.499 265.542 530.234 273.688Z" fill="#167FFC"/>
<path d="M544.774 297.784C546.603 293.273 544.36 288.161 539.766 286.365C535.171 284.57 529.964 286.772 528.136 291.283C526.307 295.794 528.55 300.906 533.144 302.701C537.739 304.496 542.946 302.295 544.774 297.784Z" fill="#167FFC"/>
<path d="M589.364 380.756C588.605 381.81 587.544 382.619 586.316 383.082C585.088 383.544 583.748 383.639 582.465 383.354C581.183 383.069 580.015 382.417 579.109 381.48C578.204 380.544 577.602 379.365 577.379 378.092C577.156 376.819 577.322 375.511 577.856 374.331C578.39 373.151 579.269 372.153 580.381 371.463C581.493 370.774 582.788 370.423 584.103 370.456C585.417 370.488 586.693 370.903 587.768 371.647C588.482 372.142 589.09 372.77 589.557 373.496C590.024 374.222 590.341 375.031 590.489 375.876C590.637 376.722 590.614 377.589 590.421 378.426C590.228 379.263 589.869 380.055 589.364 380.756Z" fill="#3D3D56"/>
<path d="M583.29 364.174C582.855 365.504 582.857 366.934 583.294 368.263C583.732 369.592 584.584 370.752 585.729 371.58C586.637 372.194 587.679 372.591 588.771 372.74C589.862 372.888 590.975 372.784 592.018 372.436C599.513 370.445 598.151 356.826 615.529 353.556C632.908 350.286 647.005 332.897 629.842 319.201C616.744 308.746 605.067 313.237 599.699 317.402L595.868 322.721L602.863 333.147C602.863 333.147 614.471 324.702 619.517 330.319C624.562 335.936 611.758 341.861 605.214 342.938C590.833 345.342 585.141 358.355 583.29 364.174Z" fill="#3D3D56"/>
<path d="M588.149 357.412C587.714 358.744 587.715 360.175 588.152 361.506C588.59 362.836 589.442 363.998 590.589 364.828C592.029 365.847 594.145 366.328 596.946 365.578C604.44 363.587 599.885 353.296 617.313 350.036C634.74 346.775 650.845 327.578 633.682 313.882C616.519 300.186 599.709 317.402 599.709 317.402L606.703 327.818C606.703 327.818 618.312 319.373 623.357 325C628.402 330.626 615.598 336.541 609.054 337.619C594.664 340.023 590.001 351.603 588.149 357.412Z" fill="#167FFC"/>
<path d="M591.927 377.165C594.009 374.187 593.237 370.116 590.204 368.072C587.17 366.028 583.024 366.786 580.942 369.764C578.86 372.742 579.632 376.814 582.665 378.857C585.699 380.901 589.845 380.144 591.927 377.165Z" fill="#167FFC"/>
<path d="M413.962 554.475C413.838 554.475 413.716 554.442 413.609 554.379C413.526 554.334 413.453 554.273 413.395 554.2C413.337 554.127 413.294 554.042 413.27 553.952C413.247 553.862 413.242 553.768 413.256 553.676C413.271 553.584 413.304 553.496 413.354 553.417C420.778 540.088 426.832 526.066 431.429 511.56C438.697 488.91 445.555 455.102 436.914 422.651C420.261 360.183 416.401 321.826 416.342 321.441C416.326 321.259 416.384 321.078 416.503 320.937C416.622 320.797 416.794 320.708 416.979 320.691C417.162 320.675 417.344 320.731 417.486 320.846C417.627 320.962 417.716 321.127 417.733 321.307C417.733 321.691 421.652 359.952 438.247 422.295C446.975 455.073 440.069 489.169 432.731 512.002C428.1 526.589 422.01 540.691 414.55 554.1C414.493 554.208 414.41 554.299 414.307 554.364C414.203 554.43 414.085 554.468 413.962 554.475Z" fill="#53D86A"/>
</g>
<defs>
<linearGradient id="paint0_linear_411_434" x1="473.034" y1="467.798" x2="484.74" y2="467.798" gradientUnits="userSpaceOnUse">
<stop stop-color="#C4C5EC"/>
<stop offset="0.42" stop-color="#FE9526"/>
<stop offset="1" stop-color="#F2DEC9"/>
</linearGradient>
<linearGradient id="paint1_linear_411_434" x1="403.842" y1="412.562" x2="626.467" y2="334.318" gradientUnits="userSpaceOnUse">
<stop stop-color="white" stop-opacity="0"/>
<stop offset="0.99" stop-color="white"/>
</linearGradient>
<linearGradient id="paint2_linear_411_434" x1="462.943" y1="356.672" x2="455.333" y2="376.407" gradientUnits="userSpaceOnUse">
<stop stop-color="#C4C5EC"/>
<stop offset="0.42" stop-color="#FE9526"/>
<stop offset="1" stop-color="#F2DEC9"/>
</linearGradient>
<linearGradient id="paint3_linear_411_434" x1="443.233" y1="355.72" x2="470.476" y2="355.72" gradientUnits="userSpaceOnUse">
<stop stop-color="#C4C5EC"/>
<stop offset="0.42" stop-color="#FE9526"/>
<stop offset="1" stop-color="#F2DEC9"/>
</linearGradient>
<linearGradient id="paint4_linear_411_434" x1="411.689" y1="322.586" x2="425.189" y2="322.586" gradientUnits="userSpaceOnUse">
<stop stop-color="#C4C5EC"/>
<stop offset="0.42" stop-color="#FE9526"/>
<stop offset="1" stop-color="#F2DEC9"/>
</linearGradient>
<linearGradient id="paint5_linear_411_434" x1="487.218" y1="429.134" x2="429.517" y2="452.867" gradientUnits="userSpaceOnUse">
<stop stop-opacity="0"/>
<stop offset="1"/>
</linearGradient>
<clipPath id="clip0_411_434">
<rect width="414" height="572" fill="white" transform="translate(227 39)"/>
</clipPath>
</defs>
</svg>
