<svg width="443" height="475" viewBox="0 0 443 475" fill="none" xmlns="http://www.w3.org/2000/svg">
<path d="M277.082 0.0962044C316.372 0.740302 372.087 16.8427 387.223 56.7768C403.494 99.7033 401.57 108.884 428.123 155.646C454.639 202.342 440.469 268.039 412.129 295.95C371.986 335.484 337.088 325.672 265.81 325.365C215.893 325.151 160.115 361.349 131.838 370.774C112.837 377.108 72.2591 383.978 46.4952 357.57C18.0447 328.409 24.3814 274.482 19.4431 253.871C14.2703 232.28 -19.9847 155.938 16.8667 96.3888C61.3094 24.5719 160.488 -1.81548 277.082 0.0962044Z" fill="url(#paint0_linear_411_395)"/>
<path d="M335.983 434.158C350.165 431.584 402.684 421.07 405.044 442.377C407.029 460.304 364.447 458.806 344.068 457.835C318.143 456.601 265.242 462.246 263.249 451.506C262.054 445.06 277.834 441.625 294.12 440.664C307.509 439.873 315.212 437.928 335.983 434.158Z" fill="url(#paint1_linear_411_395)"/>
<path d="M98.1131 450.35C85.1416 448.886 30.28 440.456 32.9691 461.7C35.1159 478.662 75.5884 472.027 93.9439 473.509C119.869 475.602 164.129 472.847 164.997 461.992C165.519 455.478 151.035 453.28 136.309 453.584C124.204 453.835 117.111 452.495 98.1131 450.35Z" fill="url(#paint2_linear_411_395)"/>
<path d="M180.333 269.84C180.333 269.169 180.878 268.624 181.549 268.624H195.221C195.892 268.624 196.437 269.169 196.437 269.84V283.512C196.437 283.834 196.309 284.143 196.081 284.371C195.853 284.599 195.544 284.727 195.221 284.727H181.549C181.227 284.727 180.917 284.599 180.689 284.371C180.462 284.143 180.333 283.834 180.333 283.512V269.84Z" fill="url(#paint3_linear_411_395)"/>
<path d="M187.821 281.386C187.722 281.386 187.624 281.363 187.536 281.319C187.447 281.275 187.37 281.212 187.31 281.133L183.364 275.98C183.31 275.913 183.269 275.836 183.245 275.753C183.22 275.67 183.213 275.583 183.223 275.497C183.233 275.412 183.26 275.329 183.303 275.254C183.346 275.179 183.403 275.113 183.472 275.06C183.54 275.008 183.619 274.97 183.702 274.948C183.786 274.927 183.873 274.922 183.959 274.935C184.044 274.948 184.126 274.978 184.2 275.023C184.273 275.068 184.337 275.128 184.387 275.198L187.767 279.612L192.346 272.27C192.44 272.133 192.584 272.037 192.746 272.003C192.909 271.968 193.079 271.998 193.22 272.087C193.362 272.175 193.463 272.314 193.504 272.475C193.545 272.637 193.522 272.807 193.439 272.952L188.367 281.084C188.312 281.172 188.236 281.246 188.146 281.299C188.057 281.351 187.955 281.382 187.851 281.387L187.821 281.386Z" fill="#FDE7A7"/>
<path d="M180.333 293.581C180.333 292.91 180.878 292.365 181.549 292.365H195.221C195.892 292.365 196.437 292.91 196.437 293.581V307.253C196.437 307.575 196.309 307.884 196.081 308.112C195.853 308.34 195.544 308.468 195.221 308.468H181.549C181.227 308.468 180.917 308.34 180.689 308.112C180.462 307.884 180.333 307.575 180.333 307.253V293.581Z" fill="url(#paint4_linear_411_395)"/>
<path d="M187.821 305.127C187.722 305.127 187.624 305.104 187.536 305.06C187.447 305.016 187.37 304.952 187.31 304.874L183.364 299.721C183.31 299.654 183.269 299.577 183.245 299.494C183.22 299.411 183.213 299.324 183.223 299.238C183.233 299.152 183.26 299.069 183.303 298.994C183.346 298.919 183.403 298.854 183.472 298.801C183.54 298.749 183.619 298.71 183.702 298.689C183.786 298.667 183.873 298.663 183.959 298.676C184.044 298.689 184.126 298.719 184.2 298.764C184.273 298.809 184.337 298.869 184.387 298.939L187.767 303.353L192.346 296.011C192.44 295.873 192.584 295.777 192.746 295.743C192.909 295.709 193.079 295.739 193.22 295.827C193.362 295.915 193.463 296.055 193.504 296.216C193.545 296.377 193.522 296.548 193.439 296.693L188.367 304.825C188.312 304.913 188.236 304.987 188.146 305.039C188.057 305.092 187.955 305.122 187.851 305.127L187.821 305.127Z" fill="#FDE7A7"/>
<path d="M180.333 317.322C180.333 316.651 180.878 316.107 181.549 316.107H195.221C195.892 316.107 196.437 316.651 196.437 317.322V330.994C196.437 331.317 196.309 331.626 196.081 331.854C195.853 332.082 195.544 332.21 195.221 332.21H181.549C181.227 332.21 180.917 332.082 180.689 331.854C180.462 331.626 180.333 331.317 180.333 330.994V317.322Z" fill="url(#paint5_linear_411_395)"/>
<path d="M187.821 328.868C187.722 328.867 187.624 328.845 187.536 328.801C187.447 328.757 187.37 328.693 187.31 328.614L183.364 323.462C183.31 323.395 183.269 323.318 183.245 323.235C183.22 323.152 183.213 323.065 183.223 322.979C183.233 322.893 183.26 322.81 183.303 322.735C183.346 322.66 183.403 322.594 183.472 322.542C183.54 322.489 183.619 322.451 183.702 322.43C183.786 322.408 183.873 322.404 183.959 322.417C184.044 322.43 184.126 322.459 184.2 322.505C184.273 322.55 184.337 322.609 184.387 322.68L187.767 327.094L192.346 319.752C192.437 319.607 192.581 319.504 192.748 319.465C192.914 319.427 193.089 319.456 193.234 319.546C193.379 319.637 193.482 319.781 193.521 319.947C193.559 320.114 193.53 320.289 193.439 320.434L188.367 328.565C188.312 328.654 188.236 328.727 188.146 328.78C188.057 328.833 187.955 328.863 187.851 328.868L187.821 328.868Z" fill="#FDE7A7"/>
<path d="M154.583 179.397H245.562V260.473H154.583V179.397Z" fill="url(#paint6_linear_411_395)"/>
<path d="M163.842 186.294H197.926V189.514H163.842V186.294Z" fill="url(#paint7_linear_411_395)"/>
<path d="M236.303 190.427C236.303 190.085 236.167 189.758 235.926 189.516C235.684 189.275 235.357 189.139 235.015 189.139H227.286C226.944 189.139 226.616 189.275 226.375 189.516C226.133 189.758 225.998 190.085 225.998 190.427V251.616H236.303V190.427Z" fill="url(#paint8_linear_411_395)"/>
<path d="M236.303 213.722V190.427C236.303 190.085 236.167 189.758 235.926 189.516C235.684 189.275 235.357 189.139 235.015 189.139H227.286C226.944 189.139 226.616 189.275 226.375 189.516C226.133 189.758 225.998 190.085 225.998 190.427V213.722H236.303Z" fill="url(#paint9_linear_411_395)"/>
<path d="M205.225 204.114C205.225 203.772 205.089 203.445 204.848 203.203C204.606 202.962 204.278 202.826 203.937 202.826H196.208C195.866 202.826 195.538 202.962 195.297 203.203C195.055 203.445 194.919 203.772 194.919 204.114V251.616H205.225V204.114Z" fill="url(#paint10_linear_411_395)"/>
<path d="M205.225 231.542V204.114C205.225 203.772 205.089 203.445 204.848 203.203C204.606 202.962 204.278 202.826 203.937 202.826H196.208C195.866 202.826 195.538 202.962 195.297 203.203C195.055 203.445 194.919 203.772 194.919 204.114V231.542H205.225Z" fill="url(#paint11_linear_411_395)"/>
<path d="M220.764 213.131C220.764 212.79 220.628 212.462 220.387 212.221C220.145 211.979 219.818 211.843 219.476 211.843H211.747C211.405 211.843 211.077 211.979 210.836 212.221C210.594 212.462 210.458 212.79 210.458 213.131V251.616H220.764V213.131Z" fill="url(#paint12_linear_411_395)"/>
<path d="M220.764 231.542V213.131C220.764 212.79 220.628 212.462 220.387 212.221C220.145 211.979 219.818 211.843 219.476 211.843H211.747C211.405 211.843 211.077 211.979 210.836 212.221C210.594 212.462 210.458 212.79 210.458 213.131V231.542H220.764Z" fill="url(#paint13_linear_411_395)"/>
<path d="M189.686 195.419C189.686 195.077 189.551 194.75 189.309 194.508C189.068 194.266 188.74 194.131 188.398 194.131H180.669C180.327 194.131 180 194.266 179.758 194.508C179.517 194.75 179.381 195.077 179.381 195.419V251.616H189.686V195.419Z" fill="url(#paint14_linear_411_395)"/>
<path d="M189.686 215.332V195.419C189.686 195.077 189.551 194.75 189.309 194.508C189.068 194.266 188.74 194.131 188.398 194.131H180.669C180.327 194.131 180 194.266 179.758 194.508C179.517 194.75 179.381 195.077 179.381 195.419V215.332H189.686Z" fill="url(#paint15_linear_411_395)"/>
<path d="M174.147 223.759C174.147 223.417 174.012 223.09 173.77 222.848C173.528 222.607 173.201 222.471 172.859 222.471H165.13C164.788 222.471 164.461 222.607 164.219 222.848C163.978 223.09 163.842 223.417 163.842 223.759V251.616H174.147V223.759Z" fill="url(#paint16_linear_411_395)"/>
<path d="M174.147 240.023V223.759C174.147 223.417 174.012 223.09 173.77 222.848C173.528 222.607 173.201 222.471 172.859 222.471H165.13C164.788 222.471 164.461 222.607 164.219 222.848C163.978 223.09 163.842 223.417 163.842 223.759V240.023H174.147Z" fill="url(#paint17_linear_411_395)"/>
<path d="M236.303 252.26H164.003C163.832 252.26 163.668 252.192 163.548 252.072C163.427 251.951 163.359 251.787 163.359 251.616C163.359 251.445 163.427 251.282 163.548 251.161C163.668 251.04 163.832 250.972 164.003 250.972H236.303C236.474 250.972 236.638 251.04 236.758 251.161C236.879 251.282 236.947 251.445 236.947 251.616C236.947 251.787 236.879 251.951 236.758 252.072C236.638 252.192 236.474 252.26 236.303 252.26Z" fill="#1A68E8"/>
<path d="M32.647 57.7429H123.948V112.008H32.647V57.7429Z" fill="url(#paint18_linear_411_395)"/>
<path d="M45.0845 103.957H71.7224V70.0884L45.0845 103.957ZM96.4126 95.7447V103.957H112.837V76.2073L96.4126 95.7447Z" fill="#0059EC"/>
<path d="M71.7227 70.0884V103.957H96.4128V95.7447L71.7227 70.0884ZM120.782 86.8079L112.837 76.2073V103.957H120.782V86.8079Z" fill="#0043B2"/>
<path d="M82.4038 64.8281H117.346V68.0486H82.4038V64.8281Z" fill="url(#paint19_linear_411_395)"/>
<path d="M62.2021 95.3217C62.0924 95.3219 61.9846 95.2941 61.8888 95.2408C61.793 95.1876 61.7123 95.1108 61.6546 95.0177L46.4152 70.5117C46.3685 70.4398 46.3366 70.3594 46.3213 70.2751C46.3061 70.1908 46.3078 70.1043 46.3264 70.0206C46.345 69.937 46.3801 69.8579 46.4297 69.788C46.4792 69.7181 46.5422 69.6588 46.615 69.6135C46.6877 69.5682 46.7688 69.538 46.8534 69.5244C46.938 69.5109 47.0245 69.5144 47.1077 69.5347C47.191 69.555 47.2694 69.5917 47.3382 69.6427C47.4071 69.6936 47.4651 69.7578 47.5089 69.8315L62.7482 94.3375C62.8088 94.435 62.8423 94.5469 62.8451 94.6616C62.848 94.7764 62.8201 94.8898 62.7644 94.9901C62.7087 95.0905 62.6272 95.1741 62.5284 95.2324C62.4295 95.2907 62.3168 95.3215 62.2021 95.3217Z" fill="#1A68E8"/>
<path d="M46.9625 73.6335C48.8745 73.6335 50.4245 72.0835 50.4245 70.1715C50.4245 68.2595 48.8745 66.7095 46.9625 66.7095C45.0505 66.7095 43.5005 68.2595 43.5005 70.1715C43.5005 72.0835 45.0505 73.6335 46.9625 73.6335Z" fill="#F96B5F"/>
<path d="M62.2015 96.8849C63.4205 96.8849 64.4088 95.8966 64.4088 94.6775C64.4088 93.4585 63.4205 92.4702 62.2015 92.4702C60.9824 92.4702 59.9941 93.4585 59.9941 94.6775C59.9941 95.8966 60.9824 96.8849 62.2015 96.8849Z" fill="white"/>
<path d="M135.4 123.994C132.361 116.424 131.587 108.134 133.172 100.132C135.579 87.9106 143.028 77.9657 152.931 72.0271L143.665 53.8165C128.38 62.5235 116.826 77.5773 113.16 96.1911C110.635 109.012 112.215 121.688 116.985 132.863L135.4 123.994ZM158.094 69.3921C165.636 66.171 174.19 65.1018 182.844 66.8054C195.397 69.2775 205.541 77.0743 211.416 87.3818L229.834 78.5112C221.242 62.6252 205.888 50.5555 186.784 46.7933C173.47 44.1712 160.311 45.9747 148.828 51.1822L158.094 69.3921ZM232.352 83.7329L213.937 92.6022C216.981 100.176 217.757 108.471 216.17 116.478C211.656 139.397 189.417 154.318 166.499 149.804C153.939 147.33 143.793 139.529 137.919 129.215L119.501 138.086C128.092 153.977 143.449 166.052 162.557 169.816C196.529 176.506 229.492 154.39 236.182 120.419C238.708 107.592 237.126 94.9113 232.352 83.7329Z" fill="black"/>
<path d="M139.171 131.287C134.726 124.447 132.364 116.462 132.374 108.305C132.374 95.8485 137.761 84.6515 146.33 76.9114L133.719 60.8347C120.404 72.3312 111.977 89.3335 111.977 108.305C111.977 121.372 115.977 133.504 122.816 143.547L139.171 131.287Z" fill="url(#paint20_linear_411_395)"/>
<path d="M150.888 73.3282C157.665 68.7107 165.852 66.0087 174.672 66.0087C187.467 66.0087 198.926 71.698 206.681 80.6761L223.038 68.4137C211.538 54.4877 194.141 45.6121 174.672 45.6121C161.102 45.6121 148.539 49.9243 138.279 57.2522L150.888 73.3282Z" fill="url(#paint21_linear_411_395)"/>
<path d="M226.517 73.0505L210.163 85.3109C214.613 92.1534 216.977 100.142 216.967 108.305C216.967 131.664 198.03 150.601 174.671 150.601C161.871 150.601 150.408 144.907 142.652 135.922L126.295 148.184C137.794 162.116 155.195 170.997 174.67 170.997C209.294 170.997 237.362 142.928 237.362 108.304C237.364 95.2326 233.361 83.0959 226.517 73.0505Z" fill="url(#paint22_linear_411_395)"/>
<path d="M150.15 117.523C153.881 127.44 163.45 134.498 174.671 134.498C182.723 134.498 189.924 130.862 194.729 125.144L174.671 108.305L150.15 117.523Z" fill="url(#paint23_linear_411_395)"/>
<path d="M183.961 83.813L174.67 108.305L194.729 125.144C198.555 120.59 200.864 114.718 200.864 108.305C200.864 97.111 193.839 87.5623 183.961 83.813Z" fill="url(#paint24_linear_411_395)"/>
<path d="M183.961 83.8128C180.993 82.6858 177.845 82.1091 174.671 82.1111C160.205 82.1111 148.478 93.8382 148.478 108.305C148.478 111.55 149.071 114.655 150.15 117.523L174.67 108.305L183.961 83.8128Z" fill="url(#paint25_linear_411_395)"/>
<path d="M250.746 29.9663H391.213V117.966H250.746V29.9663Z" fill="url(#paint26_linear_411_395)"/>
<path d="M264.968 47.8476C266.88 47.8476 268.43 46.2976 268.43 44.3856C268.43 42.4736 266.88 40.9236 264.968 40.9236C263.056 40.9236 261.506 42.4736 261.506 44.3856C261.506 46.2976 263.056 47.8476 264.968 47.8476Z" fill="#FDE7A7"/>
<path d="M283.545 47.8476C285.457 47.8476 287.007 46.2976 287.007 44.3856C287.007 42.4736 285.457 40.9236 283.545 40.9236C281.633 40.9236 280.083 42.4736 280.083 44.3856C280.083 46.2976 281.633 47.8476 283.545 47.8476Z" fill="#0059EC"/>
<path d="M302.12 47.8476C304.032 47.8476 305.582 46.2976 305.582 44.3856C305.582 42.4736 304.032 40.9236 302.12 40.9236C300.208 40.9236 298.658 42.4736 298.658 44.3856C298.658 46.2976 300.208 47.8476 302.12 47.8476Z" fill="#A0C0F6"/>
<path d="M261.506 53.6633H305.583V56.8838H261.506V53.6633Z" fill="url(#paint27_linear_411_395)"/>
<path d="M380.45 51.6904C378.316 47.4896 375.117 43.6392 370.574 43.7873C360.698 44.1094 354.256 69.8733 347.386 70.1953C340.516 70.5174 342.878 44.217 334.075 44.4314C323.019 44.7013 322.588 95.6372 308.74 96.8178C294.892 97.9985 291.779 69.4437 285.553 69.8733C279.327 70.3029 276.65 92.2628 275.569 97.033C274.489 101.803 269.021 102.722 269.021 102.722H380.45V51.6904Z" fill="url(#paint28_linear_411_395)"/>
<path d="M380.451 51.4089C365.206 52.053 361.986 93.0608 346.313 92.0946C333.312 91.2934 335.471 69.2292 324.092 68.5851C312.712 67.941 307.345 94.671 293.604 95.5296C286.923 95.947 281.582 91.7726 275.463 92.3091C269.344 92.8457 263.01 101.004 261.506 102.722H380.451V51.4089Z" fill="url(#paint29_linear_411_395)"/>
<path d="M174.238 18.7217H231.133V36.7564H174.238V18.7217Z" fill="url(#paint30_linear_411_395)"/>
<path d="M225.916 30.8791C223.664 30.8791 222.533 29.4208 221.535 28.1339C220.599 26.9282 219.792 25.8873 218.172 25.8873C216.551 25.8873 215.744 26.9282 214.808 28.1339C213.81 29.4208 212.679 30.8791 210.427 30.8791C208.175 30.8791 207.044 29.4208 206.047 28.1339C205.112 26.9282 204.304 25.8873 202.684 25.8873C201.064 25.8873 200.256 26.9282 199.321 28.1339C198.323 29.4208 197.192 30.8791 194.941 30.8791C192.69 30.8791 191.559 29.4208 190.561 28.1339C189.627 26.9282 188.819 25.8873 187.2 25.8873C185.58 25.8873 184.772 26.9282 183.838 28.1339C182.84 29.4208 181.709 30.8791 179.457 30.8791C179.286 30.8791 179.122 30.8112 179.002 30.6904C178.881 30.5696 178.813 30.4058 178.813 30.235C178.813 30.0642 178.881 29.9003 179.002 29.7795C179.122 29.6587 179.286 29.5909 179.457 29.5909C181.078 29.5909 181.885 28.55 182.82 27.3443C183.818 26.0574 184.949 24.5991 187.2 24.5991C189.451 24.5991 190.581 26.058 191.58 27.3443C192.514 28.55 193.321 29.5909 194.941 29.5909C196.561 29.5909 197.368 28.55 198.303 27.3443C199.301 26.0574 200.433 24.5991 202.684 24.5991C204.935 24.5991 206.067 26.0574 207.064 27.3443C208 28.55 208.807 29.5909 210.427 29.5909C212.048 29.5909 212.855 28.55 213.791 27.3443C214.789 26.0574 215.92 24.5991 218.172 24.5991C220.424 24.5991 221.554 26.0574 222.552 27.3443C223.488 28.55 224.295 29.5909 225.916 29.5909C226.087 29.5909 226.25 29.6587 226.371 29.7795C226.492 29.9003 226.56 30.0642 226.56 30.235C226.56 30.4058 226.492 30.5696 226.371 30.6904C226.25 30.8112 226.087 30.8791 225.916 30.8791Z" fill="#0555DA"/>
<path d="M182.234 56.6578C182.106 56.6579 181.98 56.6197 181.874 56.5479C181.767 56.4761 181.684 56.3741 181.636 56.255C181.588 56.1359 181.577 56.0051 181.603 55.8795C181.63 55.7539 181.694 55.6391 181.786 55.55L201.758 36.2927C201.881 36.1741 202.046 36.1091 202.217 36.1122C202.388 36.1152 202.55 36.1859 202.669 36.3088C202.787 36.4318 202.852 36.5968 202.849 36.7676C202.846 36.9384 202.776 37.1009 202.653 37.2196L182.681 56.4768C182.561 56.5932 182.401 56.6581 182.234 56.6578Z" fill="#1A68E8"/>
<path d="M182.234 58.5628C183.642 58.5628 184.784 57.4214 184.784 56.0134C184.784 54.6055 183.642 53.4641 182.234 53.4641C180.826 53.4641 179.685 54.6055 179.685 56.0134C179.685 57.4214 180.826 58.5628 182.234 58.5628Z" fill="#FDE7A7"/>
<path d="M285.77 220.691C286.013 221.107 286.411 221.408 286.877 221.53C287.342 221.652 287.837 221.584 288.253 221.341L317.824 207.99C318.03 207.869 318.21 207.71 318.354 207.52C318.498 207.33 318.603 207.114 318.664 206.883C318.724 206.653 318.739 206.413 318.706 206.176C318.674 205.94 318.595 205.713 318.475 205.507L305.04 183.144C304.919 182.938 304.76 182.758 304.57 182.614C304.38 182.47 304.164 182.365 303.933 182.305C303.703 182.244 303.462 182.23 303.226 182.262C302.99 182.295 302.763 182.373 302.557 182.494L269.659 191.612C269.454 191.732 269.273 191.891 269.129 192.081C268.985 192.271 268.88 192.487 268.819 192.718C268.759 192.948 268.744 193.188 268.777 193.425C268.809 193.661 268.887 193.888 269.008 194.094L285.77 220.691Z" fill="url(#paint31_linear_411_395)"/>
<path d="M320.085 205.88L305.776 182.061C305.517 181.619 305.094 181.298 304.598 181.168C304.102 181.038 303.575 181.11 303.132 181.369L268.093 191.08C267.874 191.208 267.683 191.378 267.529 191.58C267.376 191.782 267.264 192.013 267.199 192.258C267.135 192.504 267.12 192.759 267.154 193.011C267.189 193.262 267.272 193.504 267.4 193.723L285.253 222.05C285.512 222.493 285.936 222.814 286.432 222.944C286.927 223.074 287.454 223.001 287.897 222.743L319.393 208.523C319.835 208.264 320.157 207.84 320.286 207.344C320.416 206.849 320.344 206.322 320.085 205.88ZM287.704 218.024L272.574 193.567L303.329 184.308L316.453 205.805L287.704 218.024Z" fill="url(#paint32_linear_411_395)"/>
<path d="M308.603 198.398L285.237 207.619L283.344 204.905L307.062 196.028L308.603 198.398Z" fill="#FDE7A7"/>
<path d="M292.647 198.7C294.081 198.7 295.244 197.537 295.244 196.103C295.244 194.669 294.081 193.506 292.647 193.506C291.213 193.506 290.05 194.669 290.05 196.103C290.05 197.537 291.213 198.7 292.647 198.7Z" fill="#F96B5F"/>
<path d="M283.8 202.101C285.234 202.101 286.397 200.938 286.397 199.504C286.397 198.069 285.234 196.907 283.8 196.907C282.365 196.907 281.203 198.069 281.203 199.504C281.203 200.938 282.365 202.101 283.8 202.101Z" fill="#FE7468"/>
<path d="M300.953 195.407C302.244 195.407 303.29 194.361 303.29 193.07C303.29 191.779 302.244 190.733 300.953 190.733C299.663 190.733 298.617 191.779 298.617 193.07C298.617 194.361 299.663 195.407 300.953 195.407Z" fill="#0059EC"/>
<path d="M340.097 373.78C339.34 360.916 342.232 345.141 342.125 340.203L321.096 338.998C321.096 338.998 320.691 354.046 320.881 367.071C321.096 381.778 324.155 423.966 323.243 430.568C322.674 434.682 319.314 437.337 316.203 439.297C317.697 440.062 320.345 440.589 324.13 438.716C328.412 436.597 333.236 434.229 336.637 434.111C336.5 431.889 336.361 429.81 336.339 428.422C336.232 421.711 341.009 389.292 340.097 373.78Z" fill="url(#paint33_linear_411_395)"/>
<path d="M324.13 438.716C320.345 440.589 317.698 440.063 316.203 439.297C315.393 439.807 314.6 440.273 313.878 440.702C311.125 442.336 306.717 442.978 307.195 444.685C307.57 446.026 317.968 446.636 323.539 445.049C326.17 444.3 330.677 441.882 330.677 441.882L330.851 445.17C330.851 445.17 335.85 445.542 336.387 444.951C337.202 444.053 336.923 438.766 336.637 434.11C333.236 434.229 328.412 436.597 324.13 438.716Z" fill="url(#paint34_linear_411_395)"/>
<path d="M365.164 439.156C369.636 436.943 374.698 434.46 378.113 434.551C377.974 432.332 377.81 430.248 377.723 428.851C377.455 424.557 377.348 417.15 377.885 401.584C378.422 386.018 375.63 375.069 374.664 365.837C373.698 356.604 373.698 346.836 373.59 341.898L353.569 344.366C353.569 344.366 355.109 359.108 356.467 372.063C357.752 384.301 365.539 423.537 364.627 430.138C364.066 434.196 360.048 437.519 357.065 439.649C358.524 440.46 361.232 441.101 365.164 439.156Z" fill="url(#paint35_linear_411_395)"/>
<path d="M348.577 445.812C348.577 446.724 359.001 447.077 364.573 445.49C367.203 444.741 371.711 442.323 371.711 442.323L371.885 445.61C371.885 445.61 377.239 445.812 377.776 445.221C378.588 444.327 378.403 439.147 378.113 434.551C374.697 434.46 369.635 436.943 365.163 439.156C361.232 441.102 358.523 440.46 357.064 439.649C356.235 440.241 355.482 440.745 354.911 441.142C352.281 442.967 348.577 444.041 348.577 445.812Z" fill="url(#paint36_linear_411_395)"/>
<path d="M367.256 264.928C369.51 268.363 375.63 279.313 377.883 290.745C379.963 301.291 379.816 307.331 380.943 315.543C382.07 323.755 387.867 341.79 387.545 342.917C387.223 344.044 384.646 345.735 379.602 345.87C375.831 345.97 373.054 345.655 366.291 347.909C359.528 350.164 351.905 351.452 342.673 350.486C333.442 349.52 326.142 345.655 321.526 345.548C316.909 345.44 310.79 345.44 310.146 344.152C309.502 342.864 313.694 332.901 314.601 326.654C315.626 319.601 317.875 306.149 322.813 292.838C327.441 280.362 333.978 266.001 333.978 266.001C333.978 266.001 343.585 265.947 350.509 265.786C357.433 265.625 367.256 264.928 367.256 264.928Z" fill="url(#paint37_linear_411_395)"/>
<path d="M348.845 346.63C346.802 346.63 344.728 346.518 342.605 346.295C337.511 345.763 332.92 344.334 329.23 343.185C326.166 342.232 323.52 341.407 321.511 341.361L320.238 341.333C316.655 341.26 312.594 341.177 310.754 340.501C310.674 340.472 310.601 340.428 310.539 340.37C310.477 340.313 310.427 340.244 310.391 340.167C310.356 340.09 310.336 340.007 310.332 339.923C310.329 339.838 310.342 339.754 310.371 339.675C310.4 339.595 310.445 339.523 310.502 339.46C310.559 339.398 310.628 339.348 310.705 339.312C310.782 339.277 310.865 339.257 310.949 339.253C311.034 339.25 311.118 339.263 311.197 339.292C312.835 339.893 316.954 339.978 320.264 340.046L321.54 340.073C323.73 340.124 326.456 340.972 329.612 341.955C333.437 343.146 337.771 344.495 342.739 345.015C350.892 345.868 358.313 345.058 366.085 342.468C372.01 340.493 374.956 340.458 378.075 340.421C378.567 340.415 379.065 340.408 379.583 340.395C384.101 340.274 385.984 338.929 386.453 338.519C386.517 338.463 386.591 338.421 386.671 338.394C386.751 338.367 386.836 338.356 386.92 338.362C387.005 338.367 387.087 338.39 387.163 338.427C387.239 338.465 387.306 338.517 387.362 338.581C387.417 338.645 387.46 338.719 387.487 338.799C387.514 338.879 387.525 338.964 387.519 339.048C387.513 339.133 387.491 339.215 387.453 339.291C387.415 339.367 387.363 339.434 387.299 339.49C386.593 340.106 384.43 341.554 379.617 341.683C379.093 341.697 378.588 341.702 378.089 341.709C375.074 341.745 372.226 341.778 366.492 343.689C360.564 345.667 354.835 346.63 348.845 346.63Z" fill="#AECCFF"/>
<path d="M350.901 342.339C348.336 342.339 345.647 342.191 342.821 341.894C337.481 341.336 332.731 339.87 328.539 338.578C325.509 337.643 322.892 336.836 320.819 336.635C319.106 336.47 317.55 336.608 316.178 336.729C314.553 336.874 313.148 336.999 311.978 336.569C311.896 336.541 311.822 336.498 311.757 336.441C311.693 336.383 311.641 336.314 311.604 336.237C311.567 336.159 311.546 336.075 311.542 335.989C311.538 335.904 311.551 335.818 311.581 335.737C311.611 335.657 311.656 335.583 311.714 335.52C311.773 335.457 311.843 335.407 311.922 335.372C312 335.337 312.085 335.317 312.17 335.315C312.256 335.313 312.342 335.329 312.422 335.36C313.321 335.691 314.593 335.578 316.064 335.446C317.491 335.319 319.109 335.176 320.943 335.353C323.146 335.565 325.821 336.391 328.918 337.346C333.054 338.622 337.741 340.068 342.956 340.613C352.08 341.566 359.73 340.96 366.339 338.759C372.209 336.803 373.848 336.854 376.318 336.929C376.736 336.942 377.18 336.955 377.675 336.96C382.374 337.004 384.328 335.768 385.394 334.837C385.458 334.781 385.532 334.739 385.612 334.712C385.692 334.685 385.777 334.674 385.861 334.68C385.946 334.686 386.028 334.708 386.104 334.746C386.18 334.783 386.247 334.836 386.303 334.899C386.358 334.963 386.401 335.037 386.428 335.117C386.455 335.198 386.465 335.282 386.46 335.367C386.454 335.451 386.432 335.534 386.394 335.609C386.356 335.685 386.304 335.753 386.24 335.808C385.034 336.861 382.862 338.249 377.899 338.249L377.663 338.248C377.202 338.243 376.74 338.232 376.278 338.217C373.858 338.142 372.398 338.096 366.746 339.98C362.02 341.557 356.788 342.338 350.901 342.339Z" fill="#AECCFF"/>
<path d="M306.765 196.465C305.786 196.791 304.134 197.673 304.457 199.283C304.779 200.894 307.68 203.721 308.646 204.15C309.612 204.579 308.967 202.021 308.107 200.894C307.248 199.766 309.645 202.331 310.414 202.074C310.978 201.886 311.167 200.813 310.549 199.122C309.999 197.618 312.455 196.224 311.381 196.009C310.307 195.794 308.053 196.036 306.765 196.465Z" fill="url(#paint38_linear_411_395)"/>
<path d="M321.868 215.097C322.146 214.732 329.977 209.304 330.558 209.091C331.375 208.793 344.068 225.369 345.84 227.221C347.611 229.072 343.498 238.313 340.117 238.957C336.735 239.601 321.136 216.057 321.868 215.097Z" fill="url(#paint39_linear_411_395)"/>
<path d="M299.464 195.741C300.603 194.602 306.282 195.258 307.033 195.472C307.785 195.687 309.663 194.131 310.79 194.076C311.917 194.022 315.366 194.654 317.392 195.794C319.638 197.059 330.864 209.428 330.864 209.428C330.864 209.428 330.705 212.648 327.885 214.581C325.06 216.517 323.247 215.632 323.247 215.632C323.247 215.632 319.27 208.381 317.902 207.496C316.533 206.61 313.152 208.1 310.368 207.417C307.742 206.774 304.094 203.389 305.102 202.504C306.171 201.563 308.727 203.733 309.878 204.114C311.582 204.678 314.776 204.001 314.842 202.705C314.923 201.134 309.834 199.678 305.986 198.518C303.265 197.698 298.539 196.666 299.464 195.741Z" fill="url(#paint40_linear_411_395)"/>
<path d="M324.225 216.474C322.502 216.474 321.511 215.64 321.446 215.583C321.323 215.47 321.249 215.313 321.24 215.145C321.23 214.978 321.287 214.814 321.396 214.688C321.506 214.561 321.661 214.482 321.827 214.468C321.994 214.454 322.16 214.505 322.29 214.61C322.364 214.672 324.239 216.178 327.535 214.04C330.071 212.394 330.219 209.434 330.221 209.404C330.224 209.32 330.243 209.237 330.279 209.16C330.314 209.083 330.364 209.014 330.426 208.957C330.488 208.899 330.561 208.854 330.64 208.825C330.719 208.796 330.803 208.783 330.888 208.786C331.243 208.799 331.52 209.096 331.507 209.451C331.502 209.599 331.348 213.102 328.235 215.122C326.648 216.151 325.295 216.474 324.225 216.474Z" fill="#1A68E8"/>
<path d="M362.962 200.41C364.68 203.953 371.121 216.298 370.692 225.852C370.263 235.407 367.685 245.283 367.363 252.69C367.041 260.097 367.256 264.928 367.256 264.928C367.256 264.928 360.172 269.329 349.436 269.007C339.028 268.695 333.978 266.001 333.978 266.001C333.978 266.001 333.67 254.638 332.368 246.893C331.348 240.828 328.852 237.285 328.825 230.469C328.79 221.746 342.217 210.474 346.216 204.383C349.503 199.375 362.962 200.41 362.962 200.41Z" fill="url(#paint41_linear_411_395)"/>
<path d="M350.575 269.668C350.194 269.668 349.808 269.662 349.417 269.651C338.977 269.338 333.886 266.682 333.675 266.569C333.524 266.489 333.412 266.352 333.362 266.188C333.312 266.025 333.329 265.848 333.41 265.697C333.49 265.547 333.627 265.434 333.79 265.384C333.954 265.335 334.13 265.352 334.281 265.432C334.33 265.458 339.354 268.06 349.457 268.363C359.855 268.683 366.848 264.423 366.917 264.38C367.062 264.292 367.236 264.265 367.401 264.304C367.566 264.344 367.709 264.447 367.799 264.591C367.888 264.735 367.917 264.909 367.879 265.074C367.841 265.24 367.74 265.384 367.596 265.475C367.31 265.652 360.725 269.668 350.575 269.668Z" fill="#1A68E8"/>
<path d="M373.214 165.066C374.824 165.146 379.754 163.869 383.439 163.053C390.713 161.443 397.861 161.539 399.702 166.595C401.286 170.943 398.652 174.553 399.086 177.599C399.676 181.732 412.022 185.22 412.262 193.487C412.493 201.412 405.982 204.275 404.211 207.737C402.44 211.199 398.913 221.706 386.659 220.861C379.656 220.378 377.724 216.244 377.722 213.373C377.722 209.686 381.265 206.852 379.574 204.195C377.883 201.538 372.464 203.297 371.281 200.169C369.994 196.76 372.892 193.97 375.065 192.279C377.239 190.588 380.46 188.817 379.735 186.321C379.011 183.825 374.582 183.196 374.743 180.685C374.932 177.76 380.304 175.588 379.413 172.634C378.743 170.407 374.904 170.863 371.603 170.219C368.302 169.574 373.214 165.066 373.214 165.066Z" fill="url(#paint42_linear_411_395)"/>
<path d="M361.352 185.811C360.936 189.541 362.962 200.411 362.962 200.411C362.962 200.411 357.917 205.644 350.509 205.993C346.875 206.164 346.216 204.383 346.216 204.383L347.719 189.461C347.719 189.461 349.983 185.214 354.589 183.45C359.194 181.684 360.923 183.342 360.923 183.342L361.352 185.811Z" fill="url(#paint43_linear_411_395)"/>
<path d="M359.312 158.759C352.763 155.968 347.885 156.089 347.885 156.089C342.78 158.866 329.207 184.251 337.735 190.426C342.999 194.238 352.028 190.35 358.029 185.168C358.406 185.286 358.799 185.347 359.195 185.346C361.285 185.346 362.979 183.707 362.979 181.683C362.979 181.105 362.836 180.561 362.591 180.074C363.144 179.203 363.57 178.35 363.821 177.544C365.299 172.797 365.86 161.55 359.312 158.759Z" fill="url(#paint44_linear_411_395)"/>
<path d="M349.141 174.124C348.989 174.124 348.839 174.088 348.704 174.019C348.568 173.951 348.451 173.851 348.361 173.729C348.272 173.606 348.212 173.464 348.187 173.315C348.162 173.165 348.173 173.011 348.219 172.867C348.517 171.926 349.599 170.174 350.286 169.519C350.378 169.431 350.486 169.363 350.604 169.317C350.723 169.271 350.849 169.25 350.976 169.253C351.103 169.256 351.228 169.284 351.344 169.335C351.46 169.387 351.565 169.461 351.652 169.553C351.739 169.645 351.808 169.753 351.854 169.871C351.899 169.99 351.921 170.116 351.918 170.243C351.915 170.37 351.887 170.495 351.835 170.611C351.784 170.727 351.71 170.831 351.618 170.919C351.173 171.342 350.256 172.832 350.062 173.448C350 173.644 349.877 173.815 349.712 173.937C349.546 174.058 349.346 174.124 349.141 174.124ZM340.003 169.025C339.877 169.025 339.752 168.995 339.639 168.938C339.526 168.88 339.429 168.797 339.354 168.695C339.279 168.593 339.229 168.475 339.209 168.35C339.188 168.225 339.198 168.097 339.236 167.977C339.522 167.068 340.394 165.662 341.063 165.025C341.218 164.878 341.425 164.798 341.638 164.803C341.852 164.809 342.054 164.899 342.201 165.053C342.349 165.208 342.428 165.415 342.423 165.629C342.418 165.842 342.328 166.045 342.173 166.192C341.706 166.635 340.974 167.823 340.772 168.462C340.72 168.625 340.618 168.767 340.48 168.869C340.342 168.97 340.175 169.024 340.003 169.025Z" fill="#0043B2"/>
<path d="M349.194 177.931C348.544 177.936 347.902 177.778 347.328 177.473C346.14 176.838 345.36 175.63 345.134 174.072C344.914 172.568 345.239 170.907 346.048 169.394C347.309 167.036 349.492 165.513 351.611 165.513C352.281 165.513 352.91 165.667 353.477 165.971C355.879 167.254 356.453 170.879 354.758 174.05C353.498 176.407 351.314 177.931 349.194 177.931ZM351.611 166.478C349.871 166.478 347.977 167.833 346.9 169.849C346.188 171.181 345.9 172.631 346.09 173.932C346.271 175.179 346.873 176.133 347.784 176.62C348.218 176.85 348.703 176.968 349.194 176.963C350.935 176.963 352.829 175.609 353.906 173.594C355.349 170.892 354.952 167.854 353.021 166.822C352.587 166.592 352.102 166.474 351.611 166.478ZM338.393 171.853C337.931 171.857 337.476 171.746 337.068 171.531C335.138 170.498 334.849 167.399 336.411 164.476C337.593 162.265 339.565 160.781 341.317 160.781C341.795 160.781 342.241 160.889 342.642 161.103C343.599 161.615 344.182 162.657 344.28 164.037C344.374 165.336 344.025 166.799 343.298 168.157C342.117 170.367 340.145 171.853 338.393 171.853ZM341.317 161.746C339.934 161.746 338.267 163.056 337.264 164.931C336 167.295 336.12 169.927 337.523 170.678C337.791 170.818 338.09 170.889 338.393 170.886C339.777 170.886 341.444 169.576 342.447 167.701C343.088 166.501 343.397 165.224 343.317 164.105C343.243 163.067 342.842 162.303 342.187 161.954C341.919 161.814 341.62 161.743 341.317 161.746Z" fill="#3663AD"/>
<path d="M344.231 167.025C341.694 169.131 334.652 172.608 334.461 173.841C334.206 175.492 337.979 176.412 338.838 176.412C339.697 176.412 340.325 174.083 342.621 170.888C343.914 169.09 345.58 165.904 344.231 167.025Z" fill="url(#paint45_linear_411_395)"/>
<path d="M346.794 169.556C346.698 169.556 346.603 169.528 346.523 169.473C346.443 169.419 346.382 169.343 346.346 169.253C345.683 167.596 344.834 167.102 343.41 167.544C343.289 167.579 343.159 167.564 343.048 167.504C342.937 167.444 342.854 167.343 342.817 167.223C342.779 167.103 342.79 166.972 342.848 166.86C342.905 166.748 343.004 166.662 343.123 166.622C345.045 166.024 346.392 166.768 347.243 168.894C347.272 168.968 347.283 169.047 347.275 169.125C347.266 169.204 347.239 169.279 347.194 169.344C347.15 169.41 347.09 169.463 347.021 169.5C346.951 169.537 346.873 169.556 346.794 169.556Z" fill="#3663AD"/>
<path d="M335.633 180.053C335.724 180.431 335.958 180.822 336.227 181.144C336.501 181.468 336.834 181.732 337.203 181.897C337.941 182.241 338.799 182.11 339.562 181.734C339.619 181.706 339.681 181.689 339.744 181.685C339.808 181.681 339.871 181.689 339.931 181.71C339.991 181.73 340.047 181.762 340.095 181.804C340.143 181.845 340.182 181.896 340.21 181.953C340.238 182.01 340.255 182.072 340.259 182.135C340.263 182.198 340.255 182.262 340.235 182.322C340.214 182.382 340.182 182.438 340.141 182.486C340.099 182.533 340.048 182.572 339.991 182.601C339.981 182.605 339.97 182.611 339.96 182.615C339.483 182.81 338.967 182.959 338.425 182.974C337.878 182.997 337.334 182.878 336.847 182.627C336.377 182.379 335.969 182.028 335.651 181.602C335.344 181.182 335.093 180.731 334.988 180.183C334.977 180.1 334.997 180.016 335.045 179.948C335.093 179.88 335.165 179.832 335.246 179.815C335.327 179.797 335.413 179.811 335.484 179.853C335.556 179.896 335.609 179.964 335.633 180.044L335.633 180.053Z" fill="#954943"/>
<path d="M350.035 206.648C346.411 206.648 345.644 204.693 345.612 204.606C345.58 204.526 345.564 204.441 345.566 204.355C345.568 204.269 345.586 204.184 345.621 204.106C345.656 204.027 345.707 203.956 345.769 203.897C345.832 203.838 345.906 203.793 345.986 203.763C346.067 203.733 346.153 203.72 346.239 203.724C346.325 203.727 346.409 203.748 346.487 203.785C346.564 203.822 346.634 203.874 346.691 203.939C346.748 204.003 346.792 204.078 346.82 204.159C346.838 204.199 347.435 205.493 350.479 205.35C357.549 205.017 362.45 200.015 362.499 199.964C362.558 199.903 362.628 199.854 362.705 199.82C362.783 199.787 362.866 199.768 362.951 199.767C363.036 199.765 363.12 199.781 363.198 199.812C363.277 199.843 363.349 199.889 363.41 199.948C363.471 200.006 363.519 200.076 363.553 200.154C363.587 200.232 363.605 200.315 363.606 200.4C363.608 200.484 363.593 200.568 363.562 200.647C363.531 200.726 363.485 200.797 363.426 200.858C363.213 201.079 358.115 206.28 350.539 206.636C350.365 206.644 350.197 206.648 350.035 206.648Z" fill="#1A68E8"/>
<path d="M358.166 178.16C357.482 178.327 356.504 178.027 356.575 176.632C356.709 174.002 361.223 169.97 361.112 166.246C360.976 161.724 352.482 160.717 346.645 158.436C340.36 155.981 340.445 148.72 342.015 146.346C343.746 143.729 346.806 144.588 348.094 145.877C349.382 147.165 349.972 148.595 351.101 148.561C352.402 148.52 351.919 145.984 353.891 145.984C355.889 145.984 357.618 149.669 358.991 151.19C361.339 153.794 373.66 157.856 374.287 166.702C375.147 178.832 363.071 188.279 361.728 188.279C359.442 188.28 359.563 185.635 360.539 185.105C361.517 184.576 363.357 183.458 362.891 180.904C362.425 178.35 359.688 177.786 358.166 178.16Z" fill="url(#paint46_linear_411_395)"/>
<path d="M360.56 178.27C361.637 178.673 362.476 179.537 362.815 180.616C362.858 180.558 362.887 180.492 362.9 180.422C362.914 180.351 362.911 180.279 362.892 180.21C362.119 177.441 358.084 174.981 355.918 173.66C355.46 173.381 355.065 173.14 354.832 172.975C354.727 172.905 354.599 172.878 354.475 172.901C354.351 172.924 354.24 172.994 354.168 173.098C354.095 173.201 354.065 173.328 354.085 173.453C354.105 173.577 354.173 173.689 354.275 173.764C354.534 173.948 354.923 174.184 355.415 174.484C356.826 175.346 359.074 176.716 360.56 178.27Z" fill="#3663AD"/>
<path d="M284.567 208.887C285.87 208.633 287.347 212.89 287.991 215.305C288.635 217.721 289.102 221.809 291.466 224.511C293.627 226.979 300.538 229.234 300.538 229.234C300.538 229.234 301.289 233.259 299.464 235.514C297.639 237.768 294.946 237.654 294.946 237.654C294.946 237.654 287.012 229.77 283.683 227.463C280.356 225.155 278.316 222.041 277.806 219.814C277.26 217.431 276.867 216.244 277.135 213.614C277.28 212.187 277.841 210.292 277.841 210.292C277.841 210.292 282.783 218.133 284.059 220.163C285.402 219.894 284.757 216.191 284.596 214.688C284.435 213.185 283.241 209.146 284.567 208.887Z" fill="url(#paint47_linear_411_395)"/>
<path d="M354.375 210.888C360.009 209.911 363.318 212.449 365.082 216.272C367.014 220.458 366.611 225.638 363.606 228.643C360.601 231.649 341.246 254.649 331.051 254.357C319.673 254.031 294.512 239.669 294.259 238.197C294.003 236.726 298.7 228.581 299.358 228.818C300.016 229.055 326.032 238.883 329.898 237.842C333.762 236.802 350.459 211.567 354.375 210.888Z" fill="url(#paint48_linear_411_395)"/>
<path d="M294.252 238.828C294.102 238.83 293.957 238.779 293.842 238.684C293.727 238.588 293.65 238.455 293.624 238.307C293.328 236.599 297.496 229.443 298.696 228.435C298.995 228.183 299.29 228.109 299.577 228.212C299.709 228.259 299.822 228.349 299.899 228.467C299.975 228.584 300.012 228.724 300.001 228.864C299.991 229.004 299.936 229.137 299.843 229.243C299.75 229.349 299.626 229.421 299.488 229.449C298.493 230.283 294.751 236.967 294.893 238.089C294.938 238.436 294.698 238.769 294.352 238.821C294.319 238.826 294.286 238.829 294.252 238.828Z" fill="#1A68E8"/>
<path d="M110.002 353.759C110.002 353.996 110.049 354.231 110.139 354.45C110.23 354.669 110.363 354.868 110.531 355.036C110.699 355.204 110.898 355.337 111.117 355.427C111.337 355.518 111.571 355.565 111.809 355.565H151.849C152.086 355.565 152.321 355.518 152.54 355.427C152.76 355.337 152.959 355.204 153.126 355.036C153.294 354.868 153.427 354.669 153.518 354.45C153.609 354.231 153.656 353.996 153.656 353.759V327.265C153.656 327.028 153.609 326.793 153.518 326.574C153.427 326.355 153.294 326.155 153.126 325.988C152.959 325.82 152.76 325.687 152.54 325.596C152.321 325.506 152.086 325.459 151.849 325.459H111.809C111.571 325.459 111.337 325.506 111.117 325.596C110.898 325.687 110.699 325.82 110.531 325.988C110.363 326.155 110.23 326.355 110.139 326.574C110.049 326.793 110.002 327.028 110.002 327.265V353.759Z" fill="url(#paint49_linear_411_395)"/>
<path d="M153.244 324.41H110.412C109.899 324.41 109.408 324.613 109.045 324.976C108.683 325.338 108.479 325.829 108.479 326.342V354.682C108.479 355.195 108.683 355.686 109.045 356.049C109.408 356.411 109.899 356.615 110.412 356.615H153.244C153.757 356.615 154.248 356.411 154.611 356.049C154.973 355.686 155.177 355.195 155.177 354.682V326.342C155.177 325.829 154.973 325.338 154.611 324.976C154.248 324.613 153.757 324.41 153.244 324.41ZM151.956 353.394H111.7V327.63H151.956V353.394Z" fill="url(#paint50_linear_411_395)"/>
<path d="M110.382 342.488H144.466V345.709H110.382V342.488Z" fill="#FDE7A7"/>
<path d="M140.042 334.879L144.466 340.049L135.644 340.073L140.042 334.879Z" fill="#0059EC"/>
<path d="M128.295 340.073C129.73 340.073 130.892 338.91 130.892 337.476C130.892 336.042 129.73 334.879 128.295 334.879C126.861 334.879 125.698 336.042 125.698 337.476C125.698 338.91 126.861 340.073 128.295 340.073Z" fill="#F96B5F"/>
<path d="M72.3074 450.408C73.4945 453.38 78.5726 454.626 82.8333 455.634C87.425 456.722 90.6958 457.349 90.509 459.177C90.2945 461.27 80.311 461.968 73.0649 461.753C65.8188 461.539 60.5694 460.685 59.4963 459.88C58.3627 459.029 58.4123 451.34 58.6803 449.623C58.9482 447.906 72.3074 450.408 72.3074 450.408Z" fill="url(#paint51_linear_411_395)"/>
<path d="M64.7452 275.878C63.779 279.42 61.3102 287.579 60.451 303.037C59.5918 318.496 60.6655 365.944 60.6655 377.538C60.6655 389.132 57.8746 409.742 57.6595 423.698C57.4443 437.654 57.168 450.776 57.9815 451.287C59.7798 452.414 70.0854 453.219 73.5474 451.287C74.1516 450.95 79.7739 402.228 83.6385 381.832C86.1879 368.375 96.0909 295.307 96.7349 284.572C97.379 273.838 64.7452 275.878 64.7452 275.878Z" fill="url(#paint52_linear_411_395)"/>
<path d="M66.9915 448.022C62.2136 448.022 58.5216 447.068 57.1729 446.387C57.0954 446.35 57.0262 446.298 56.9691 446.234C56.9121 446.17 56.8684 446.095 56.8407 446.014C56.813 445.933 56.8018 445.847 56.8077 445.761C56.8136 445.676 56.8366 445.592 56.8753 445.515C56.9139 445.439 56.9675 445.371 57.0328 445.315C57.0981 445.26 57.1739 445.218 57.2557 445.192C57.3375 445.166 57.4236 445.156 57.509 445.164C57.5945 445.172 57.6775 445.197 57.7532 445.237C59.6224 446.18 66.3641 447.673 74.2215 445.965C74.3885 445.929 74.563 445.961 74.7067 446.053C74.8504 446.145 74.9514 446.291 74.9876 446.458C75.0239 446.625 74.9922 446.8 74.8998 446.943C74.8073 447.087 74.6616 447.188 74.4946 447.224C72.0291 447.757 69.5138 448.024 66.9915 448.022Z" fill="#CD2E21"/>
<path d="M124.592 454.132C125.611 455.957 130.153 458.222 134.414 459.231C139.006 460.318 142.277 460.946 142.09 462.773C141.875 464.867 131.892 465.564 124.646 465.35C117.4 465.135 112.515 464.867 111.442 464.062C110.308 463.211 109.724 457.137 109.992 455.42C110.261 453.703 124.592 454.132 124.592 454.132Z" fill="url(#paint53_linear_411_395)"/>
<path d="M115.897 283.499C116.38 289.94 120.727 368.037 121.694 380.919C122.66 393.801 126.899 453.264 126.363 454.4C125.478 456.278 111.791 458.372 109.697 456.52C108.358 455.335 104.034 425.201 100.599 405.449C97.1643 385.696 89.6497 350.7 85.7851 336.96C81.9205 323.219 74.8354 300.729 78.861 280.762C82.5646 276.575 90.7801 276.669 99.7942 278.346C109.076 280.073 115.897 283.499 115.897 283.499Z" fill="url(#paint54_linear_411_395)"/>
<path d="M88.7524 349.953C88.0102 346.924 87.2366 343.903 86.4318 340.889C85.6318 337.878 84.7243 334.897 83.8502 331.897C82.0925 325.902 80.4397 319.86 79.1805 313.715C79.1642 313.632 79.1644 313.547 79.1812 313.464C79.1979 313.381 79.2308 313.302 79.278 313.232C79.3252 313.162 79.3857 313.102 79.4562 313.055C79.5267 313.008 79.6057 312.976 79.6887 312.959C79.7717 312.943 79.8571 312.943 79.9401 312.96C80.023 312.977 80.1018 313.01 80.172 313.057C80.2422 313.104 80.3025 313.165 80.3493 313.235C80.3961 313.305 80.4286 313.384 80.4449 313.468C81.5849 319.579 83.123 325.62 84.7726 331.636C85.5912 334.644 86.4504 337.653 87.2002 340.689C87.953 343.721 88.6744 346.761 89.3643 349.808C89.3836 349.889 89.3697 349.975 89.326 350.046C89.2822 350.117 89.212 350.167 89.1308 350.187C89.0497 350.206 88.9642 350.192 88.8933 350.148C88.8223 350.104 88.7717 350.034 88.7524 349.953Z" fill="#CD2E21"/>
<path d="M79.8052 314.195C79.7191 314.195 79.6339 314.178 79.5547 314.144C77.6707 313.349 73.4003 310.269 72.3511 308.521C72.3076 308.449 72.2787 308.368 72.2663 308.285C72.2538 308.201 72.258 308.116 72.2785 308.034C72.3199 307.868 72.4255 307.725 72.572 307.637C72.7185 307.55 72.8939 307.523 73.0596 307.565C73.2253 307.606 73.3678 307.712 73.4557 307.858C74.2995 309.264 78.2265 312.185 80.0564 312.958C80.1929 313.016 80.3051 313.12 80.3741 313.251C80.4432 313.383 80.4647 313.534 80.4352 313.679C80.4057 313.824 80.3268 313.955 80.2121 314.049C80.0973 314.143 79.9536 314.195 79.8052 314.195ZM113.564 452.754C111.035 452.754 108.989 452.479 108.114 452.151C108.035 452.121 107.962 452.076 107.9 452.019C107.838 451.961 107.789 451.892 107.754 451.815C107.718 451.738 107.699 451.655 107.696 451.57C107.693 451.486 107.707 451.401 107.736 451.322C107.766 451.243 107.811 451.17 107.869 451.108C107.927 451.047 107.996 450.997 108.073 450.962C108.15 450.927 108.233 450.907 108.317 450.904C108.402 450.901 108.486 450.915 108.565 450.945C110.629 451.716 120.337 452.13 125.916 448.637C125.988 448.592 126.068 448.562 126.151 448.548C126.234 448.534 126.32 448.536 126.402 448.555C126.485 448.574 126.563 448.609 126.631 448.658C126.7 448.707 126.759 448.769 126.804 448.841C126.849 448.913 126.879 448.993 126.893 449.076C126.907 449.159 126.904 449.245 126.885 449.327C126.866 449.41 126.831 449.487 126.782 449.556C126.733 449.625 126.671 449.684 126.6 449.729C122.892 452.05 117.609 452.754 113.564 452.754Z" fill="#CD2E21"/>
<path d="M92.1994 170.176C96.064 162.446 111.657 129.023 113.267 126.984C114.877 124.944 116.141 124.543 116.595 121.455C116.972 118.892 116.769 117.121 117.239 115.122C117.883 112.384 121.769 105.075 120.782 102.938C120.138 101.542 117.561 105.246 116.595 106.427C115.629 107.607 112.76 112.219 112.074 111.792C111.892 109.996 112.128 103.958 112.128 103.958C110.906 105.407 109.215 109.111 108.249 112.975C107.283 116.84 107.578 118.181 105.431 122.583C103.284 126.985 85.6251 146.307 76.6078 166.435C76.0812 167.613 75.5734 168.8 75.0845 169.994C78.8956 172.666 83.9891 175.362 90.1248 176.432C90.767 173.831 91.4671 171.64 92.1994 170.176Z" fill="url(#paint55_linear_411_395)"/>
<path d="M98.6134 209.589C87.1711 206.378 88.2982 208.117 87.0493 207.558C85.6793 206.188 87.3746 187.558 90.1236 176.432C83.9879 175.361 78.895 172.666 75.0833 169.993C66.9934 189.707 62.4177 214.822 62.1144 234.548C61.7923 255.481 62.5974 276.414 62.7585 277.38C62.9195 278.346 77.5663 287.363 93.8362 287.525C110.046 287.686 115.897 283.499 115.897 283.499C115.897 283.499 119.145 226.111 118.621 224.506C118.097 222.9 110.056 212.801 98.6134 209.589Z" fill="url(#paint56_linear_411_395)"/>
<path d="M96.118 283.623C95.6201 283.623 95.1138 283.618 94.5941 283.609C75.369 283.278 63.4455 274.799 62.0517 273.253C61.9372 273.127 61.8778 272.96 61.8866 272.789C61.8953 272.618 61.9715 272.458 62.0984 272.344C62.2252 272.229 62.3923 272.17 62.5629 272.179C62.7336 272.187 62.8937 272.264 63.0081 272.39C64.1353 273.641 75.8933 281.998 94.616 282.321C110.417 282.595 115.696 278.501 115.748 278.46C115.813 278.407 115.889 278.367 115.97 278.344C116.052 278.32 116.137 278.313 116.221 278.322C116.305 278.331 116.386 278.357 116.461 278.397C116.535 278.438 116.6 278.493 116.653 278.559C116.706 278.625 116.745 278.701 116.769 278.782C116.793 278.863 116.8 278.948 116.791 279.032C116.782 279.116 116.756 279.198 116.715 279.272C116.675 279.346 116.62 279.412 116.554 279.464C116.336 279.64 111.191 283.623 96.118 283.623ZM108.367 222.26C108.25 222.261 108.135 222.229 108.034 222.168C107.933 222.107 107.851 222.02 107.797 221.916C105.783 218.081 98.9018 212.728 95.8114 211.526C95.6552 211.462 95.5304 211.339 95.4637 211.184C95.3971 211.029 95.394 210.854 95.4551 210.696C95.5162 210.539 95.6366 210.412 95.7905 210.343C95.9443 210.273 96.1193 210.267 96.2777 210.325C99.6167 211.624 106.765 217.182 108.937 221.317C108.988 221.415 109.014 221.524 109.01 221.635C109.007 221.746 108.975 221.854 108.918 221.949C108.861 222.044 108.78 222.122 108.684 222.177C108.587 222.231 108.478 222.26 108.367 222.26ZM76.3758 202.691C76.2242 202.691 76.0775 202.637 75.9616 202.54C75.8457 202.442 75.7679 202.307 75.742 202.157C74.4254 194.592 78.6417 182.459 80.668 176.629C81.106 175.367 81.4525 174.372 81.5891 173.857C81.6107 173.775 81.6482 173.698 81.6996 173.631C81.7509 173.564 81.815 173.508 81.8882 173.465C81.9613 173.423 82.0422 173.395 82.126 173.384C82.2099 173.373 82.2951 173.378 82.3768 173.4C82.4586 173.422 82.5353 173.459 82.6025 173.511C82.6698 173.562 82.7262 173.626 82.7687 173.699C82.8111 173.773 82.8386 173.853 82.8498 173.937C82.8609 174.021 82.8554 174.106 82.8335 174.188C82.6847 174.75 82.3491 175.715 81.8841 177.052C79.8932 182.78 75.751 194.701 77.0102 201.937C77.0263 202.03 77.0219 202.124 76.9974 202.215C76.9729 202.306 76.9289 202.39 76.8685 202.462C76.808 202.534 76.7326 202.591 76.6475 202.631C76.5624 202.671 76.4697 202.691 76.3758 202.691Z" fill="#0555DA"/>
<path d="M68.5561 205.402C68.4251 205.402 68.2972 205.362 68.1896 205.288C68.0819 205.213 67.9995 205.107 67.9533 204.985C67.9072 204.862 67.8996 204.729 67.9314 204.601C67.9633 204.474 68.0331 204.36 68.1316 204.274C69.4218 203.145 76.378 199.319 84.4254 202.716C84.5828 202.782 84.7074 202.908 84.7718 203.066C84.8362 203.225 84.835 203.402 84.7687 203.559C84.7023 203.717 84.5761 203.841 84.4179 203.906C84.2597 203.97 84.0823 203.969 83.9249 203.903C76.4489 200.749 69.9499 204.394 68.9799 205.243C68.8575 205.349 68.7062 205.402 68.5561 205.402Z" fill="#0555DA"/>
<path d="M104.055 164.744C106.508 168.805 111.388 169.574 111.79 170.943C112.193 172.312 109.536 175.049 108.731 175.532C107.926 176.015 104.061 168.125 103.739 167.24C103.417 166.354 104.055 164.744 104.055 164.744Z" fill="url(#paint57_linear_411_395)"/>
<path d="M97.2585 156.25C97.2585 156.25 86.1073 159.51 80.6325 167.133C77.6097 171.341 81.3622 178.754 85.3292 184.552C84.0004 185.687 83.3164 186.992 83.3164 186.992L82.8063 188.414C82.5113 191.662 78.9771 202.843 77.6889 206.171C77.2097 207.409 80.5655 211.961 87.8786 212.326C94.3195 212.648 98.6137 209.589 98.6137 209.589L99.2308 195.459C99.2308 195.459 99.4472 194.574 99.6803 193.371C102.795 192.974 106.337 191.753 109.295 188.709C116.702 181.088 101.405 159.591 97.2585 156.25Z" fill="url(#paint58_linear_411_395)"/>
<path d="M95.0178 175.827C95.8339 175.275 95.6085 173.573 93.6762 171.641C91.7439 169.709 89.704 167.991 90.0802 165.951C90.4531 163.928 97.1144 161.772 100.241 159.454C105.378 155.646 107.041 146.413 103.928 145.823C99.6573 145.014 98.2937 150.869 97.1653 150.869C95.8236 150.869 96.5102 147.739 94.5857 147.965C91.7974 148.292 90.7236 152.264 89.114 153.498C86.7013 155.348 73.8702 159.295 73.0651 168.849C72.4094 176.627 77.2807 181.049 79.4255 183.825C81.7069 186.776 82.4109 188.295 82.807 188.414C83.5181 188.628 86.6491 188.161 89.3285 187.045C92.227 185.837 93.9982 184.308 93.4347 183.583C92.8711 182.858 88.6574 182.049 88.3624 178.511C88.1479 175.934 89.8921 174.807 91.2608 175.049C92.6295 175.29 94.1052 176.445 95.0178 175.827Z" fill="url(#paint59_linear_411_395)"/>
<path d="M96.9762 178.431C97.4806 178.446 97.8619 181.866 99.8347 182.336C101.149 182.648 105.377 179.719 107.282 178.874C108.44 178.361 110.504 178.009 110.636 178.538C110.769 179.068 111.067 181.008 111.791 182.739C112.403 184.2 113.804 185.543 113.12 188.535C112.115 192.93 104.465 196.225 99.2312 195.459C99.1101 194.211 98.9356 192.276 98.0635 188.777C97.0567 184.738 95.4897 181.061 95.527 180.323C95.5811 179.263 96.1177 178.404 96.9762 178.431Z" fill="url(#paint60_linear_411_395)"/>
<path d="M102.585 171.212C102.374 171.211 102.169 171.142 102.001 171.014C101.833 170.886 101.712 170.707 101.655 170.504C101.434 169.705 100.42 167.947 100.218 167.677C100.064 167.473 99.996 167.218 100.028 166.965C100.061 166.712 100.191 166.482 100.391 166.324C100.589 166.168 100.841 166.095 101.092 166.124C101.343 166.152 101.572 166.278 101.731 166.475C101.99 166.799 103.205 168.861 103.517 169.987C103.557 170.131 103.563 170.282 103.535 170.428C103.507 170.574 103.445 170.712 103.355 170.831C103.265 170.949 103.148 171.045 103.015 171.111C102.881 171.177 102.734 171.212 102.585 171.212Z" fill="#0043B2"/>
<path d="M107.624 181.731C107.738 181.922 108.088 182.157 108.401 182.282C108.727 182.416 109.078 182.481 109.416 182.443C110.101 182.383 110.676 181.827 111.032 181.136C111.062 181.076 111.114 181.03 111.177 181.008C111.24 180.986 111.31 180.99 111.37 181.018C111.431 181.046 111.478 181.097 111.502 181.16C111.526 181.222 111.524 181.292 111.498 181.353C111.328 181.753 111.105 182.149 110.779 182.483C110.444 182.833 110.012 183.073 109.539 183.173C109.06 183.273 108.568 183.225 108.118 183.087C107.665 182.929 107.247 182.766 106.848 182.306L106.841 182.297C106.796 182.247 106.762 182.187 106.741 182.122C106.721 182.058 106.714 181.989 106.721 181.922C106.729 181.854 106.75 181.789 106.784 181.731C106.818 181.672 106.864 181.621 106.919 181.581C106.974 181.542 107.037 181.514 107.104 181.5C107.17 181.486 107.239 181.486 107.305 181.5C107.371 181.514 107.434 181.542 107.489 181.582C107.544 181.622 107.59 181.672 107.624 181.731Z" fill="#D2E0F8"/>
<path d="M87.8784 212.326C94.3194 212.648 98.6136 209.589 98.6136 209.589L98.8384 204.441C97.2165 205.313 93.7158 206.813 89.1035 206.582C83.505 206.302 80.2342 203.572 79.2192 201.751C78.6111 203.62 78.0578 205.218 77.6894 206.171C77.2102 207.409 80.5653 211.961 87.8784 212.326Z" fill="url(#paint61_linear_411_395)"/>
<path d="M88.8385 212.994C88.5132 212.994 88.1828 212.987 87.8459 212.969C82.4413 212.699 78.9535 210.184 77.6086 208.113C77.0579 207.265 76.8731 206.492 77.0875 205.938C77.1511 205.782 77.2733 205.657 77.428 205.59C77.5826 205.522 77.7574 205.519 77.9148 205.579C78.0721 205.639 78.1996 205.759 78.2698 205.912C78.3399 206.066 78.3472 206.24 78.2901 206.399C78.2714 206.479 78.312 206.911 78.8511 207.645C80.1715 209.443 83.2451 211.449 87.9097 211.682C94.0563 211.984 98.1972 209.093 98.2391 209.063C98.308 209.014 98.3859 208.979 98.4683 208.96C98.5507 208.941 98.6361 208.939 98.7195 208.953C98.803 208.967 98.8828 208.997 98.9546 209.042C99.0263 209.087 99.0885 209.145 99.1376 209.214C99.1867 209.283 99.2217 209.361 99.2407 209.443C99.2597 209.526 99.2623 209.611 99.2483 209.695C99.2343 209.778 99.204 209.858 99.1592 209.93C99.1143 210.001 99.0558 210.064 98.9869 210.113C98.8136 210.237 94.8698 212.994 88.8385 212.994Z" fill="#0555DA"/>
<path d="M130.832 314.939C129.007 309.354 127.084 273.081 123.822 247.854C114.772 248.094 107.409 250.362 103.504 252.228C104.424 256.473 105.747 262.027 107.846 269.329C113.59 289.31 121.292 312.081 121.426 316.992C121.505 319.889 119.039 323.29 118.724 327.569C118.514 330.438 119.681 335.108 120.782 335.027C122.177 334.925 122.061 330.675 122.62 328.667C123.506 325.486 125.398 324.399 125.398 324.399C125.398 324.399 129.424 324.41 136.211 324.41C135.258 320.988 131.628 317.374 130.832 314.939Z" fill="url(#paint62_linear_411_395)"/>
<path d="M118.097 223.813C111.656 216.942 99.3111 224.135 98.1304 233.152C97.8779 235.08 99.6331 237.339 100.921 240.667C101.685 242.639 102.164 246.043 103.503 252.228C107.408 250.362 114.771 248.094 123.822 247.854C122.264 235.803 120.401 226.27 118.097 223.813Z" fill="url(#paint63_linear_411_395)"/>
<path d="M103.504 252.872C103.358 252.872 103.217 252.823 103.102 252.732C102.988 252.641 102.908 252.513 102.876 252.371C102.844 252.229 102.861 252.079 102.924 251.948C102.988 251.816 103.094 251.71 103.226 251.647C105.247 250.681 112.706 247.504 123.805 247.21C124.162 247.212 124.457 247.482 124.466 247.837C124.47 248.008 124.407 248.174 124.289 248.298C124.172 248.422 124.01 248.494 123.839 248.498C115.222 248.726 107.828 250.874 103.782 252.809C103.695 252.851 103.6 252.873 103.504 252.872ZM98.1313 233.796C98.0396 233.796 97.9489 233.777 97.8654 233.739C97.7818 233.701 97.7073 233.646 97.6468 233.577C97.5862 233.508 97.5411 233.427 97.5143 233.339C97.4876 233.252 97.4799 233.159 97.4917 233.068C98.1757 227.847 102.61 222.789 108.036 221.042C112.111 219.73 115.95 220.579 118.568 223.373C118.678 223.499 118.734 223.662 118.726 223.829C118.718 223.996 118.645 224.153 118.523 224.267C118.402 224.381 118.24 224.444 118.073 224.441C117.906 224.439 117.747 224.372 117.628 224.254C114.529 220.948 110.535 221.591 108.431 222.269C103.455 223.871 99.3918 228.484 98.7696 233.236C98.7491 233.391 98.6731 233.533 98.5557 233.636C98.4383 233.739 98.2875 233.796 98.1313 233.796Z" fill="#0555DA"/>
<path d="M312.418 159.5L305.639 158.909L311.919 152.713L312.418 159.5Z" fill="#F96B5F"/>
<path d="M288.462 180.229C288.326 180.229 288.194 180.186 288.084 180.106C287.974 180.027 287.892 179.914 287.85 179.785C284.545 169.686 291.071 163.427 301.882 153.057C304.114 150.916 306.645 148.489 309.26 145.852C324.653 130.336 321.648 114.579 320.36 110.12C320.312 109.956 320.332 109.779 320.415 109.63C320.498 109.48 320.636 109.37 320.8 109.322C320.964 109.275 321.141 109.295 321.29 109.377C321.44 109.46 321.55 109.599 321.598 109.763C322.935 114.393 326.063 130.745 310.175 146.759C307.548 149.406 305.012 151.84 302.774 153.986C292.327 164.006 286.021 170.054 289.074 179.384C289.106 179.481 289.115 179.584 289.099 179.684C289.084 179.785 289.044 179.881 288.984 179.963C288.925 180.046 288.846 180.113 288.755 180.159C288.665 180.205 288.564 180.229 288.462 180.229Z" fill="#1A68E8"/>
<path d="M319.032 150.091L316.746 147.823C322.596 141.927 326.351 135.359 327.908 128.305L331.053 128.999C329.363 136.659 325.318 143.755 319.032 150.091Z" fill="#0059EC"/>
<path d="M320.979 112.491C322.387 112.491 323.528 111.35 323.528 109.942C323.528 108.534 322.387 107.393 320.979 107.393C319.571 107.393 318.43 108.534 318.43 109.942C318.43 111.35 319.571 112.491 320.979 112.491Z" fill="#FDE7A7"/>
<path d="M282.663 182.805C282.559 182.805 282.457 182.78 282.365 182.731C282.177 182.632 277.752 180.217 278.807 172.838C279.404 168.657 282.129 165.139 285.015 161.416C288.766 156.573 292.646 151.566 292.113 144.638C291.907 141.954 290.529 139.596 288.019 137.627C274.571 127.079 233.054 129.919 222.506 131.663C222.422 131.677 222.337 131.674 222.254 131.655C222.172 131.636 222.094 131.6 222.025 131.551C221.957 131.502 221.898 131.439 221.854 131.368C221.809 131.296 221.779 131.216 221.766 131.132C221.738 130.964 221.778 130.791 221.877 130.652C221.977 130.513 222.127 130.419 222.296 130.391C232.968 128.628 275.027 125.8 288.813 136.613C291.62 138.814 293.162 141.481 293.398 144.54C293.969 151.963 289.753 157.404 286.032 162.205C283.254 165.79 280.63 169.176 280.082 173.02C279.162 179.458 282.812 181.509 282.967 181.593C283.279 181.762 283.398 182.151 283.231 182.464C283.176 182.567 283.094 182.653 282.994 182.714C282.894 182.774 282.78 182.805 282.663 182.805Z" fill="#1A68E8"/>
<path d="M271.44 139.187C265.28 138.175 257.933 137.655 249.599 137.643L249.604 134.423C258.11 134.435 265.632 134.968 271.962 136.009L271.44 139.187Z" fill="#A0C0F6"/>
<path d="M222.4 133.577C223.808 133.577 224.95 132.435 224.95 131.027C224.95 129.619 223.808 128.478 222.4 128.478C220.992 128.478 219.851 129.619 219.851 131.027C219.851 132.435 220.992 133.577 222.4 133.577Z" fill="#FDE7A7"/>
<path d="M37.927 190.406L35.5953 196.8L31.2432 189.127L37.927 190.406Z" fill="#F96B5F"/>
<path d="M104.655 243.848C104.145 243.848 103.638 243.844 103.128 243.836C77.3895 243.447 54.479 233.435 38.6175 215.644C19.9612 194.718 11.1055 168.195 14.9275 144.696C17.7976 127.052 27.5325 112.665 42.3397 104.184C42.488 104.099 42.6639 104.076 42.8288 104.121C42.9937 104.166 43.134 104.274 43.2189 104.423C43.3038 104.571 43.3263 104.747 43.2815 104.912C43.2367 105.076 43.1282 105.217 42.9799 105.302C28.5161 113.586 19.0053 127.651 16.199 144.903C12.4381 168.023 21.1779 194.148 39.5791 214.787C72.7224 251.963 133.011 252.035 176.831 214.948C184.412 208.533 190.874 201.917 197.125 195.519C211.992 180.299 224.833 167.154 244.313 166.666C262.511 166.209 271.548 175.606 275.929 183.569C276.011 183.718 276.031 183.894 275.983 184.058C275.935 184.223 275.825 184.361 275.675 184.443C275.525 184.526 275.349 184.545 275.185 184.498C275.021 184.45 274.883 184.339 274.8 184.189C270.592 176.54 261.902 167.516 244.346 167.953C225.388 168.429 212.718 181.4 198.046 196.418C191.775 202.838 185.29 209.476 177.663 215.931C156.352 233.968 130.482 243.847 104.655 243.848Z" fill="#1A68E8"/>
<path d="M28.8219 183.293C25.8037 174.709 24.1973 166.033 24.0479 157.504L27.2677 157.448C27.4113 165.631 28.9565 173.967 31.8601 182.225L28.8219 183.293Z" fill="#A0C0F6"/>
<path d="M127.693 236.126L126.99 232.983C134.519 231.298 141.968 228.763 149.132 225.449L150.484 228.372C143.113 231.783 135.445 234.391 127.693 236.126Z" fill="#0059EC"/>
<path d="M42.6602 107.293C44.0681 107.293 45.2095 106.151 45.2095 104.743C45.2095 103.335 44.0681 102.194 42.6602 102.194C41.2522 102.194 40.1108 103.335 40.1108 104.743C40.1108 106.151 41.2522 107.293 42.6602 107.293Z" fill="#FDE7A7"/>
<path d="M257.523 286.236L250.835 287.499L255.208 279.836L257.523 286.236Z" fill="#0059EC"/>
<path d="M208.305 301.127C207.417 301.127 206.559 301.104 205.741 301.057C205.656 301.052 205.573 301.031 205.497 300.994C205.421 300.958 205.353 300.906 205.296 300.843C205.24 300.78 205.197 300.706 205.169 300.627C205.141 300.547 205.129 300.462 205.134 300.378C205.145 300.208 205.223 300.049 205.35 299.936C205.477 299.823 205.643 299.764 205.813 299.772C218.234 300.476 239.594 295.95 247.527 280.626C251.077 273.769 252.073 263.935 253.126 253.525C254.873 236.271 256.679 218.432 270.09 210.168C270.236 210.078 270.411 210.05 270.577 210.09C270.743 210.129 270.887 210.233 270.977 210.379C271.066 210.524 271.094 210.699 271.055 210.865C271.015 211.032 270.912 211.175 270.766 211.265C257.897 219.194 256.123 236.713 254.409 253.655C253.342 264.191 252.334 274.144 248.671 281.22C240.984 296.067 221.26 301.127 208.305 301.127Z" fill="#1A68E8"/>
<path d="M259.715 273.771L256.582 273.027C257.896 267.491 258.538 261.146 259.218 254.427C259.41 252.538 259.602 250.635 259.812 248.733L263.014 249.086C262.808 250.974 262.611 252.862 262.423 254.752C261.732 261.579 261.079 268.027 259.715 273.771Z" fill="#F96B5F"/>
<path d="M205.776 302.964C207.184 302.964 208.325 301.822 208.325 300.414C208.325 299.006 207.184 297.865 205.776 297.865C204.368 297.865 203.227 299.006 203.227 300.414C203.227 301.822 204.368 302.964 205.776 302.964Z" fill="#A0C0F6"/>
<defs>
<linearGradient id="paint0_linear_411_395" x1="60.5185" y1="46.9801" x2="360.81" y2="347.272" gradientUnits="userSpaceOnUse">
<stop stop-color="#DBE9FF"/>
<stop offset="1" stop-color="#EBF3FF"/>
</linearGradient>
<linearGradient id="paint1_linear_411_395" x1="334.149" y1="458.351" x2="334.149" y2="429.291" gradientUnits="userSpaceOnUse">
<stop stop-color="#EBF3FF"/>
<stop offset="1" stop-color="#DBE9FF"/>
</linearGradient>
<linearGradient id="paint2_linear_411_395" x1="98.9427" y1="474.157" x2="98.9427" y2="447.473" gradientUnits="userSpaceOnUse">
<stop stop-color="#EBF3FF"/>
<stop offset="1" stop-color="#DBE9FF"/>
</linearGradient>
<linearGradient id="paint3_linear_411_395" x1="180.69" y1="268.981" x2="196.08" y2="284.371" gradientUnits="userSpaceOnUse">
<stop stop-color="#FF6457"/>
<stop offset="1" stop-color="#FE756A"/>
</linearGradient>
<linearGradient id="paint4_linear_411_395" x1="180.69" y1="292.721" x2="196.08" y2="308.113" gradientUnits="userSpaceOnUse">
<stop stop-color="#FF6457"/>
<stop offset="1" stop-color="#FE756A"/>
</linearGradient>
<linearGradient id="paint5_linear_411_395" x1="180.69" y1="316.464" x2="196.08" y2="331.853" gradientUnits="userSpaceOnUse">
<stop stop-color="#FF6457"/>
<stop offset="1" stop-color="#FE756A"/>
</linearGradient>
<linearGradient id="paint6_linear_411_395" x1="157.059" y1="176.922" x2="243.087" y2="262.949" gradientUnits="userSpaceOnUse">
<stop stop-color="#6A9BED"/>
<stop offset="1" stop-color="#106828"/>
</linearGradient>
<linearGradient id="paint7_linear_411_395" x1="163.842" y1="187.904" x2="197.926" y2="187.904" gradientUnits="userSpaceOnUse">
<stop stop-color="white"/>
<stop offset="1" stop-color="#D1E0F8"/>
</linearGradient>
<linearGradient id="paint8_linear_411_395" x1="231.15" y1="251.616" x2="231.15" y2="189.14" gradientUnits="userSpaceOnUse">
<stop stop-color="#FDE7A7"/>
<stop offset="1" stop-color="#FBBC05"/>
</linearGradient>
<linearGradient id="paint9_linear_411_395" x1="225.998" y1="201.43" x2="236.303" y2="201.43" gradientUnits="userSpaceOnUse">
<stop stop-color="#0059EC"/>
<stop offset="1" stop-color="#0043B2"/>
</linearGradient>
<linearGradient id="paint10_linear_411_395" x1="200.072" y1="251.616" x2="200.072" y2="202.827" gradientUnits="userSpaceOnUse">
<stop stop-color="#1A68E8"/>
<stop offset="0.422" stop-color="#4285F4"/>
<stop offset="0.791" stop-color="#5691F4"/>
<stop offset="1" stop-color="#5793F6"/>
</linearGradient>
<linearGradient id="paint11_linear_411_395" x1="194.919" y1="217.184" x2="205.225" y2="217.184" gradientUnits="userSpaceOnUse">
<stop stop-color="#0059EC"/>
<stop offset="1" stop-color="#0043B2"/>
</linearGradient>
<linearGradient id="paint12_linear_411_395" x1="215.611" y1="251.616" x2="215.611" y2="211.844" gradientUnits="userSpaceOnUse">
<stop stop-color="#FF6457"/>
<stop offset="1" stop-color="#FE756A"/>
</linearGradient>
<linearGradient id="paint13_linear_411_395" x1="210.458" y1="221.693" x2="220.764" y2="221.693" gradientUnits="userSpaceOnUse">
<stop stop-color="#0059EC"/>
<stop offset="1" stop-color="#0043B2"/>
</linearGradient>
<linearGradient id="paint14_linear_411_395" x1="184.534" y1="251.616" x2="184.534" y2="194.131" gradientUnits="userSpaceOnUse">
<stop stop-color="#A0C0F6"/>
<stop offset="1" stop-color="#FF6457"/>
</linearGradient>
<linearGradient id="paint15_linear_411_395" x1="179.381" y1="204.731" x2="189.686" y2="204.731" gradientUnits="userSpaceOnUse">
<stop stop-color="#0059EC"/>
<stop offset="1" stop-color="#0043B2"/>
</linearGradient>
<linearGradient id="paint16_linear_411_395" x1="168.995" y1="251.616" x2="168.995" y2="222.472" gradientUnits="userSpaceOnUse">
<stop stop-color="#FDE7A7"/>
<stop offset="1" stop-color="#FBBC05"/>
</linearGradient>
<linearGradient id="paint17_linear_411_395" x1="163.842" y1="231.247" x2="174.147" y2="231.247" gradientUnits="userSpaceOnUse">
<stop stop-color="#0059EC"/>
<stop offset="1" stop-color="#0043B2"/>
</linearGradient>
<linearGradient id="paint18_linear_411_395" x1="41.9065" y1="48.484" x2="114.69" y2="121.267" gradientUnits="userSpaceOnUse">
<stop stop-color="#0059EC"/>
<stop offset="1" stop-color="#0043B2"/>
</linearGradient>
<linearGradient id="paint19_linear_411_395" x1="82.4038" y1="66.4384" x2="117.346" y2="66.4384" gradientUnits="userSpaceOnUse">
<stop stop-color="white"/>
<stop offset="1" stop-color="#D1E0F8"/>
</linearGradient>
<linearGradient id="paint20_linear_411_395" x1="111.978" y1="102.191" x2="146.331" y2="102.191" gradientUnits="userSpaceOnUse">
<stop stop-color="#FDE7A7"/>
<stop offset="1" stop-color="#FBBC05"/>
</linearGradient>
<linearGradient id="paint21_linear_411_395" x1="138.278" y1="63.1444" x2="223.038" y2="63.1444" gradientUnits="userSpaceOnUse">
<stop stop-color="#5592F8"/>
<stop offset="1" stop-color="#6A97E2"/>
</linearGradient>
<linearGradient id="paint22_linear_411_395" x1="126.296" y1="122.024" x2="237.364" y2="122.024" gradientUnits="userSpaceOnUse">
<stop stop-color="#FF6457"/>
<stop offset="1" stop-color="#FE756A"/>
</linearGradient>
<linearGradient id="paint23_linear_411_395" x1="150.15" y1="121.401" x2="194.729" y2="121.401" gradientUnits="userSpaceOnUse">
<stop stop-color="#A0C0F6"/>
<stop offset="1" stop-color="#FF6457"/>
</linearGradient>
<linearGradient id="paint24_linear_411_395" x1="174.67" y1="104.478" x2="200.864" y2="104.478" gradientUnits="userSpaceOnUse">
<stop stop-color="#994B45"/>
<stop offset="1" stop-color="#34A853"/>
</linearGradient>
<linearGradient id="paint25_linear_411_395" x1="156.161" y1="89.7733" x2="174.682" y2="108.294" gradientUnits="userSpaceOnUse">
<stop stop-color="#1A68E8"/>
<stop offset="0.422" stop-color="#4285F4"/>
<stop offset="0.791" stop-color="#5691F4"/>
<stop offset="1" stop-color="#5793F6"/>
</linearGradient>
<linearGradient id="paint26_linear_411_395" x1="263.863" y1="16.8493" x2="378.097" y2="131.083" gradientUnits="userSpaceOnUse">
<stop stop-color="#C9291C"/>
<stop offset="1" stop-color="#FE756A"/>
</linearGradient>
<linearGradient id="paint27_linear_411_395" x1="261.506" y1="55.2736" x2="305.583" y2="55.2736" gradientUnits="userSpaceOnUse">
<stop stop-color="white"/>
<stop offset="1" stop-color="#D1E0F8"/>
</linearGradient>
<linearGradient id="paint28_linear_411_395" x1="324.736" y1="102.722" x2="324.736" y2="43.7835" gradientUnits="userSpaceOnUse">
<stop stop-color="#994B45"/>
<stop offset="1" stop-color="#3663AD"/>
</linearGradient>
<linearGradient id="paint29_linear_411_395" x1="261.506" y1="77.0659" x2="380.451" y2="77.0659" gradientUnits="userSpaceOnUse">
<stop stop-color="#FE756A"/>
<stop offset="1" stop-color="#FF6457"/>
</linearGradient>
<linearGradient id="paint30_linear_411_395" x1="174.238" y1="27.739" x2="231.133" y2="27.739" gradientUnits="userSpaceOnUse">
<stop stop-color="#FDE7A7"/>
<stop offset="1" stop-color="#FBBC05"/>
</linearGradient>
<linearGradient id="paint31_linear_411_395" x1="268.76" y1="201.918" x2="318.724" y2="201.918" gradientUnits="userSpaceOnUse">
<stop stop-color="#0059EC"/>
<stop offset="1" stop-color="#0043B2"/>
</linearGradient>
<linearGradient id="paint32_linear_411_395" x1="276.27" y1="182.812" x2="310.732" y2="217.274" gradientUnits="userSpaceOnUse">
<stop stop-color="#994B45"/>
<stop offset="1" stop-color="#34A853"/>
</linearGradient>
<linearGradient id="paint33_linear_411_395" x1="316.203" y1="389.497" x2="342.129" y2="389.497" gradientUnits="userSpaceOnUse">
<stop stop-color="#F4DFA3"/>
<stop offset="1" stop-color="#E88F87"/>
</linearGradient>
<linearGradient id="paint34_linear_411_395" x1="307.159" y1="440.053" x2="336.925" y2="440.053" gradientUnits="userSpaceOnUse">
<stop stop-color="#6A9BED"/>
<stop offset="1" stop-color="#106828"/>
</linearGradient>
<linearGradient id="paint35_linear_411_395" x1="353.569" y1="391.167" x2="378.113" y2="391.167" gradientUnits="userSpaceOnUse">
<stop stop-color="#F4DFA3"/>
<stop offset="1" stop-color="#E88F87"/>
</linearGradient>
<linearGradient id="paint36_linear_411_395" x1="348.577" y1="440.568" x2="378.36" y2="440.568" gradientUnits="userSpaceOnUse">
<stop stop-color="#6A9BED"/>
<stop offset="1" stop-color="#106828"/>
</linearGradient>
<linearGradient id="paint37_linear_411_395" x1="317.058" y1="282.92" x2="382.431" y2="348.293" gradientUnits="userSpaceOnUse">
<stop stop-color="#FF6457"/>
<stop offset="1" stop-color="#FE756A"/>
</linearGradient>
<linearGradient id="paint38_linear_411_395" x1="304.416" y1="200.064" x2="311.656" y2="200.064" gradientUnits="userSpaceOnUse">
<stop stop-color="#EA4335"/>
<stop offset="0.265" stop-color="#D26D65"/>
<stop offset="0.531" stop-color="#DE837B"/>
<stop offset="0.781" stop-color="#E58C85"/>
<stop offset="1" stop-color="#E88F87"/>
</linearGradient>
<linearGradient id="paint39_linear_411_395" x1="321.843" y1="224.029" x2="346.265" y2="224.029" gradientUnits="userSpaceOnUse">
<stop stop-color="#FDE7A7"/>
<stop offset="1" stop-color="#FBBC05"/>
</linearGradient>
<linearGradient id="paint40_linear_411_395" x1="299.346" y1="204.954" x2="330.864" y2="204.954" gradientUnits="userSpaceOnUse">
<stop stop-color="#F4DFA3"/>
<stop offset="1" stop-color="#E88F87"/>
</linearGradient>
<linearGradient id="paint41_linear_411_395" x1="328.825" y1="234.673" x2="370.712" y2="234.673" gradientUnits="userSpaceOnUse">
<stop stop-color="#FDE7A7"/>
<stop offset="1" stop-color="#FBBC05"/>
</linearGradient>
<linearGradient id="paint42_linear_411_395" x1="367.995" y1="170.273" x2="406.521" y2="208.799" gradientUnits="userSpaceOnUse">
<stop stop-color="#5592F8"/>
<stop offset="1" stop-color="#6A97E2"/>
</linearGradient>
<linearGradient id="paint43_linear_411_395" x1="346.216" y1="194.32" x2="362.962" y2="194.32" gradientUnits="userSpaceOnUse">
<stop stop-color="#F4DFA3"/>
<stop offset="1" stop-color="#E88F87"/>
</linearGradient>
<linearGradient id="paint44_linear_411_395" x1="334.986" y1="174.024" x2="364.772" y2="174.024" gradientUnits="userSpaceOnUse">
<stop stop-color="#F4DFA3"/>
<stop offset="1" stop-color="#E88F87"/>
</linearGradient>
<linearGradient id="paint45_linear_411_395" x1="334.448" y1="171.602" x2="344.731" y2="171.602" gradientUnits="userSpaceOnUse">
<stop stop-color="#FF6457"/>
<stop offset="1" stop-color="#EC9C95"/>
</linearGradient>
<linearGradient id="paint46_linear_411_395" x1="341.121" y1="166.462" x2="374.331" y2="166.462" gradientUnits="userSpaceOnUse">
<stop stop-color="#5592F8"/>
<stop offset="1" stop-color="#6A97E2"/>
</linearGradient>
<linearGradient id="paint47_linear_411_395" x1="277.05" y1="223.266" x2="300.691" y2="223.266" gradientUnits="userSpaceOnUse">
<stop stop-color="#F4DFA3"/>
<stop offset="1" stop-color="#E88F87"/>
</linearGradient>
<linearGradient id="paint48_linear_411_395" x1="294.248" y1="232.519" x2="366.263" y2="232.519" gradientUnits="userSpaceOnUse">
<stop stop-color="#FDE7A7"/>
<stop offset="1" stop-color="#FBBC05"/>
</linearGradient>
<linearGradient id="paint49_linear_411_395" x1="113.918" y1="322.602" x2="149.74" y2="358.423" gradientUnits="userSpaceOnUse">
<stop stop-color="#0059EC"/>
<stop offset="1" stop-color="#0043B2"/>
</linearGradient>
<linearGradient id="paint50_linear_411_395" x1="112.669" y1="321.352" x2="150.988" y2="359.672" gradientUnits="userSpaceOnUse">
<stop stop-color="#6A9BED"/>
<stop offset="1" stop-color="#106828"/>
</linearGradient>
<linearGradient id="paint51_linear_411_395" x1="62.0147" y1="446.196" x2="82.8757" y2="467.056" gradientUnits="userSpaceOnUse">
<stop stop-color="#6A9BED"/>
<stop offset="1" stop-color="#106828"/>
</linearGradient>
<linearGradient id="paint52_linear_411_395" x1="25.5982" y1="315.025" x2="117.704" y2="407.131" gradientUnits="userSpaceOnUse">
<stop stop-color="#1276EE"/>
<stop offset="1" stop-color="#9EC6F7"/>
</linearGradient>
<linearGradient id="paint53_linear_411_395" x1="114.502" y1="450.81" x2="134.4" y2="470.708" gradientUnits="userSpaceOnUse">
<stop stop-color="#6A9BED"/>
<stop offset="1" stop-color="#106828"/>
</linearGradient>
<linearGradient id="paint54_linear_411_395" x1="51.1951" y1="308.408" x2="161.805" y2="419.018" gradientUnits="userSpaceOnUse">
<stop stop-color="#0F73EC"/>
<stop offset="1" stop-color="#9EC6F7"/>
</linearGradient>
<linearGradient id="paint55_linear_411_395" x1="75.0845" y1="139.529" x2="120.942" y2="139.529" gradientUnits="userSpaceOnUse">
<stop stop-color="#F4DFA3"/>
<stop offset="1" stop-color="#E88F87"/>
</linearGradient>
<linearGradient id="paint56_linear_411_395" x1="47.2879" y1="197.79" x2="124.448" y2="274.95" gradientUnits="userSpaceOnUse">
<stop stop-color="#1A68E8"/>
<stop offset="0.422" stop-color="#4285F4"/>
<stop offset="0.791" stop-color="#5691F4"/>
<stop offset="1" stop-color="#5793F6"/>
</linearGradient>
<linearGradient id="paint57_linear_411_395" x1="103.648" y1="170.149" x2="111.832" y2="170.149" gradientUnits="userSpaceOnUse">
<stop stop-color="#EC9C95"/>
<stop offset="1" stop-color="#FF6457"/>
</linearGradient>
<linearGradient id="paint58_linear_411_395" x1="76.5154" y1="170.879" x2="106.919" y2="201.283" gradientUnits="userSpaceOnUse">
<stop stop-color="#F4DFA3"/>
<stop offset="1" stop-color="#E88F87"/>
</linearGradient>
<linearGradient id="paint59_linear_411_395" x1="73.0045" y1="167.106" x2="105.498" y2="167.106" gradientUnits="userSpaceOnUse">
<stop stop-color="#CB2D20"/>
<stop offset="1" stop-color="#34A853"/>
</linearGradient>
<linearGradient id="paint60_linear_411_395" x1="96.4243" y1="178.467" x2="110.399" y2="192.442" gradientUnits="userSpaceOnUse">
<stop stop-color="#CB2D20"/>
<stop offset="1" stop-color="#34A853"/>
</linearGradient>
<linearGradient id="paint61_linear_411_395" x1="77.6443" y1="207.051" x2="98.8384" y2="207.051" gradientUnits="userSpaceOnUse">
<stop stop-color="#1A68E8"/>
<stop offset="0.422" stop-color="#4285F4"/>
<stop offset="0.791" stop-color="#5691F4"/>
<stop offset="1" stop-color="#5793F6"/>
</linearGradient>
<linearGradient id="paint62_linear_411_395" x1="103.504" y1="291.442" x2="136.21" y2="291.442" gradientUnits="userSpaceOnUse">
<stop stop-color="#F4DFA3"/>
<stop offset="1" stop-color="#E88F87"/>
</linearGradient>
<linearGradient id="paint63_linear_411_395" x1="98.106" y1="236.655" x2="123.822" y2="236.655" gradientUnits="userSpaceOnUse">
<stop stop-color="#1A68E8"/>
<stop offset="0.422" stop-color="#4285F4"/>
<stop offset="0.791" stop-color="#5691F4"/>
<stop offset="1" stop-color="#5793F6"/>
</linearGradient>
</defs>
</svg>
