<svg width="110" height="110" viewBox="0 0 110 110" fill="none" xmlns="http://www.w3.org/2000/svg">
<path d="M71.6023 54.9519C71.6023 64.1485 64.1484 71.6025 54.9517 71.6025C45.7551 71.6025 38.3011 64.1485 38.3011 54.9519C38.3011 45.7552 45.7551 38.3013 54.9517 38.3013C64.1484 38.3013 71.6023 45.7552 71.6023 54.9519Z" stroke="#EBECEE" stroke-width="9.22222" stroke-linecap="round" stroke-linejoin="round"/>
<path d="M63.2771 104.904L66.7682 94.4303C67.8338 91.2279 71.4914 89.7127 74.5162 91.2223L84.3845 96.162L96.162 84.39L91.2223 74.5107C89.7127 71.4914 91.2279 67.8338 94.4303 66.7682L104.904 63.2771V46.6265L94.4303 43.1354C91.2279 42.0698 89.7127 38.4122 91.2223 35.3873L96.162 25.5191L84.3845 13.7416L74.5162 18.6812C71.4914 20.1909 67.8338 18.6757 66.7682 15.4732L63.2771 5H46.6265L43.1354 15.4677C42.0698 18.6757 38.4122 20.1909 35.3929 18.6812L25.5191 13.7416L13.7416 25.5191L18.6812 35.3873C20.1909 38.4122 18.6757 42.0698 15.4732 43.1354L5 46.6265V63.2771L15.4732 66.7682C18.6757 67.8338 20.1909 71.4914 18.6812 74.5107L13.7416 84.39L25.5191 96.162L35.3929 91.2223C38.4122 89.7182 42.0698 91.2279 43.1354 94.4303L46.6265 104.904H63.2771Z" stroke="#EBECEE" stroke-width="9.22222" stroke-linecap="round" stroke-linejoin="round"/>
</svg>
