<svg width="32" height="32" viewBox="0 0 32 32" fill="none" xmlns="http://www.w3.org/2000/svg">
<path opacity="0.4" d="M21.5867 2.66669H10.4133C5.56001 2.66669 2.66667 5.56002 2.66667 10.4134V21.5734C2.66667 26.44 5.56001 29.3334 10.4133 29.3334H21.5733C26.4267 29.3334 29.32 26.44 29.32 21.5867V10.4134C29.3333 5.56002 26.44 2.66669 21.5867 2.66669Z" fill="#2D8CFF"/>
<path d="M17.68 21.7067C17.4267 21.7067 17.1733 21.6134 16.9733 21.4134L12.2667 16.7067C11.88 16.32 11.88 15.68 12.2667 15.2934L16.9733 10.5867C17.36 10.2 18 10.2 18.3867 10.5867C18.7733 10.9734 18.7733 11.6134 18.3867 12L14.3867 16L18.3867 20C18.7733 20.3867 18.7733 21.0267 18.3867 21.4134C18.2 21.6134 17.9467 21.7067 17.68 21.7067Z" fill="#2D8CFF"/>
</svg>
