<svg width="20" height="20" viewBox="0 0 20 20" fill="none" xmlns="http://www.w3.org/2000/svg">
<path fill-rule="evenodd" clip-rule="evenodd" d="M10 2.29163C8.96446 2.29163 8.125 3.13109 8.125 4.16663V4.38319C8.58922 4.37495 9.0986 4.37495 9.65761 4.37496H10.3424C10.9014 4.37495 11.4108 4.37495 11.875 4.38319V4.16663C11.875 3.13109 11.0355 2.29163 10 2.29163ZM13.125 4.4399V4.16663C13.125 2.44074 11.7259 1.04163 10 1.04163C8.27411 1.04163 6.875 2.44074 6.875 4.16663V4.4399C6.75605 4.45014 6.64112 4.46199 6.53005 4.47571C5.68841 4.5797 4.99456 4.79815 4.40515 5.28732C3.81574 5.77649 3.47316 6.4182 3.21585 7.22626C2.96649 8.00936 2.77773 9.01613 2.54045 10.2817L2.52321 10.3736C2.18838 12.1593 1.92451 13.5665 1.87609 14.676C1.82645 15.8131 1.99563 16.755 2.63711 17.5279C3.27859 18.3008 4.1731 18.6407 5.29994 18.8015C6.39928 18.9583 7.83104 18.9583 9.64781 18.9583H10.3521C12.1689 18.9583 13.6007 18.9583 14.7001 18.8015C15.8269 18.6407 16.7214 18.3008 17.3629 17.5279C18.0044 16.755 18.1735 15.8131 18.1239 14.676C18.0755 13.5665 17.8116 12.1593 17.4768 10.3736L17.4596 10.2817C17.2223 9.01614 17.0335 8.00937 16.7841 7.22626C16.5268 6.4182 16.1843 5.77649 15.5948 5.28732C15.0054 4.79815 14.3116 4.5797 13.4699 4.47571C13.3589 4.46199 13.2439 4.45014 13.125 4.4399ZM6.68333 5.71628C5.97038 5.80437 5.53978 5.97007 5.20345 6.24921C4.86711 6.52834 4.62489 6.92103 4.40692 7.60553C4.1837 8.30652 4.00808 9.23716 3.76132 10.5532C3.41488 12.4009 3.16898 13.7205 3.1249 14.7305C3.08157 15.7232 3.24079 16.298 3.599 16.7296C3.9572 17.1612 4.49283 17.4236 5.4765 17.564C6.47726 17.7068 7.81966 17.7083 9.6995 17.7083H10.3005C12.1803 17.7083 13.5227 17.7068 14.5235 17.564C15.5072 17.4236 16.0428 17.1612 16.401 16.7296C16.7592 16.298 16.9184 15.7232 16.8751 14.7305C16.831 13.7205 16.5851 12.4009 16.2387 10.5532C15.9919 9.23716 15.8163 8.30652 15.5931 7.60553C15.3751 6.92103 15.1329 6.52834 14.7965 6.24921C14.4602 5.97007 14.0296 5.80437 13.3167 5.71628C12.5865 5.62607 11.6395 5.62496 10.3005 5.62496H9.6995C8.36051 5.62496 7.41345 5.62607 6.68333 5.71628ZM12.0819 9.9495C12.3399 10.1788 12.3631 10.5739 12.1338 10.8319L9.91157 13.3319C9.801 13.4562 9.64539 13.5314 9.47922 13.5407C9.31305 13.5499 9.15004 13.4925 9.02634 13.3812L7.91523 12.3812C7.65866 12.1503 7.63786 11.7551 7.86877 11.4985C8.09968 11.242 8.49486 11.2212 8.75143 11.4521L9.39511 12.0314L11.1995 10.0014C11.4289 9.74341 11.8239 9.72017 12.0819 9.9495Z" fill="#334D6E"/>
</svg>
