<svg width="58" height="58" viewBox="0 0 58 58" fill="none" xmlns="http://www.w3.org/2000/svg">
<path opacity="0.4" d="M48.9859 41.5424C46.5692 43.7416 43.4517 44.9499 40.1892 44.9257H39.9716C40.6966 43.4274 41.0833 41.7357 41.0833 39.9474C41.0833 33.2774 35.67 27.8641 29 27.8641C22.33 27.8641 16.9166 33.2774 16.9166 39.9474C16.9166 41.7357 17.3034 43.4274 18.0284 44.9257H13.3883C2.07826 44.1282 2.07826 27.6707 13.3883 26.8732H13.5092C5.75171 5.2924 38.4732 -3.3351 42.2191 19.3332C52.6832 20.6624 56.9125 34.6066 48.9859 41.5424Z" fill="#0D71EB"/>
<path d="M29.0001 27.8643C22.3301 27.8643 16.9167 33.2776 16.9167 39.9476C16.9167 41.7359 17.3035 43.4276 18.0285 44.9259C18.2218 45.3609 18.4392 45.7718 18.6809 46.1584C20.7592 49.6626 24.6017 52.0309 29.0001 52.0309C33.3984 52.0309 37.241 49.6626 39.3193 46.1584C39.561 45.7718 39.7784 45.3609 39.9717 44.9259C40.6967 43.4276 41.0834 41.7359 41.0834 39.9476C41.0834 33.2776 35.6701 27.8643 29.0001 27.8643ZM34.0026 38.9084L28.8551 43.6693C28.5168 43.9834 28.0576 44.1526 27.6226 44.1526C27.1634 44.1526 26.7043 43.9834 26.3418 43.6209L23.9492 41.2284C23.2483 40.5276 23.2483 39.3676 23.9492 38.6668C24.65 37.9659 25.81 37.9659 26.5108 38.6668L27.6709 39.8268L31.5376 36.2501C32.2867 35.5734 33.4225 35.6218 34.0992 36.3468C34.7759 37.0718 34.7276 38.2076 34.0026 38.9084Z" fill="#0D71EB"/>
</svg>
