<svg width="22" height="22" viewBox="0 0 22 22" fill="none" xmlns="http://www.w3.org/2000/svg">
<g clip-path="url(#clip0_229_3992)">
<path d="M9.08333 11.2167H3.75C3.58432 11.2167 3.45 11.0824 3.45 10.9167V3.75C3.45 3.58432 3.58431 3.45 3.75 3.45H9.08333C9.24902 3.45 9.38333 3.58431 9.38333 3.75V10.9167C9.38333 11.0824 9.24902 11.2167 9.08333 11.2167ZM9.08333 18.55H3.75C3.58431 18.55 3.45 18.4157 3.45 18.25V14.75C3.45 14.5843 3.58431 14.45 3.75 14.45H9.08333C9.24902 14.45 9.38333 14.5843 9.38333 14.75V18.25C9.38333 18.4157 9.24902 18.55 9.08333 18.55ZM18.25 18.55H12.9167C12.751 18.55 12.6167 18.4157 12.6167 18.25V11.0833C12.6167 10.9176 12.751 10.7833 12.9167 10.7833H18.25C18.4157 10.7833 18.55 10.9176 18.55 11.0833V18.25C18.55 18.4157 18.4157 18.55 18.25 18.55ZM12.6167 7.25V3.75C12.6167 3.58432 12.751 3.45 12.9167 3.45H18.25C18.4157 3.45 18.55 3.58431 18.55 3.75V7.25C18.55 7.41568 18.4157 7.55 18.25 7.55H12.9167C12.751 7.55 12.6167 7.41569 12.6167 7.25Z" stroke="#334D6E" stroke-width="1.4"/>
</g>
<defs>
<clipPath id="clip0_229_3992">
<rect width="22" height="22" fill="white"/>
</clipPath>
</defs>
</svg>
