<svg width="58" height="58" viewBox="0 0 58 58" fill="none" xmlns="http://www.w3.org/2000/svg">
<path opacity="0.4" d="M25.9792 5.92094C27.6467 4.4951 30.3775 4.4951 32.0692 5.92094L35.8875 9.2076C36.6125 9.83594 37.9659 10.3434 38.9325 10.3434H43.0409C45.6025 10.3434 47.705 12.4459 47.705 15.0076V19.1159C47.705 20.0584 48.2125 21.4359 48.8409 22.1609L52.1275 25.9793C53.5534 27.6468 53.5534 30.3776 52.1275 32.0693L48.8409 35.8876C48.2125 36.6126 47.705 37.9659 47.705 38.9326V43.0409C47.705 45.6026 45.6025 47.7051 43.0409 47.7051H38.9325C37.99 47.7051 36.6125 48.2126 35.8875 48.8409L32.0692 52.1276C30.4017 53.5534 27.6709 53.5534 25.9792 52.1276L22.1609 48.8409C21.4359 48.2126 20.0825 47.7051 19.1159 47.7051H14.935C12.3734 47.7051 10.2709 45.6026 10.2709 43.0409V38.9084C10.2709 37.9659 9.76337 36.6126 9.15921 35.8876L5.89671 32.0451C4.49504 30.3776 4.49504 27.6709 5.89671 26.0034L9.15921 22.1609C9.76337 21.4359 10.2709 20.0826 10.2709 19.1401V14.9834C10.2709 12.4218 12.3734 10.3193 14.935 10.3193H19.1159C20.0584 10.3193 21.4359 9.81177 22.1609 9.18344L25.9792 5.92094Z" fill="#0D71EB"/>
<path d="M26.0759 36.6608C25.5926 36.6608 25.1334 36.4675 24.7951 36.1292L18.9468 30.2808C18.2459 29.58 18.2459 28.42 18.9468 27.7192C19.6476 27.0183 20.8076 27.0183 21.5084 27.7192L26.0759 32.2867L36.4676 21.895C37.1684 21.1942 38.3284 21.1942 39.0293 21.895C39.7301 22.5958 39.7301 23.7558 39.0293 24.4567L27.3568 36.1292C27.0184 36.4675 26.5593 36.6608 26.0759 36.6608Z" fill="#0D71EB"/>
</svg>
