<svg width="58" height="58" viewBox="0 0 58 58" fill="none" xmlns="http://www.w3.org/2000/svg">
<path opacity="0.4" d="M37.41 7.25H18.1734C9.83587 7.25 4.83337 12.2283 4.83337 20.59V39.8025C4.83337 48.1883 9.83587 53.1667 18.1734 53.1667H37.3859C45.7475 53.1667 50.7259 48.1883 50.7259 39.8267V20.59C50.75 12.2283 45.7475 7.25 37.41 7.25Z" fill="#0D71EB"/>
<path d="M50.7983 7.20168C46.4725 2.85168 42.2433 2.75502 37.7966 7.20168L35.0658 9.90835C34.8241 10.15 34.7516 10.4883 34.8483 10.8025C36.54 16.7233 41.2766 21.46 47.1975 23.1517C47.27 23.1758 47.3908 23.1758 47.4633 23.1758C47.705 23.1758 47.9466 23.0792 48.1158 22.91L50.7983 20.2033C52.9975 18.0042 54.085 15.9017 54.085 13.7508C54.085 11.5758 52.9975 9.42501 50.7983 7.20168Z" fill="#0D71EB"/>
<path d="M43.1616 25.1817C42.5091 24.8675 41.8808 24.5534 41.3008 24.1909C40.8175 23.9009 40.3341 23.5867 39.875 23.2484C39.4883 23.0067 39.0533 22.6442 38.6183 22.2817C38.57 22.2575 38.425 22.1367 38.2316 21.9434C37.4825 21.3392 36.685 20.5175 35.9358 19.6234C35.8875 19.575 35.7425 19.43 35.6216 19.2125C35.38 18.9467 35.0175 18.4875 34.7033 17.98C34.4375 17.6417 34.1233 17.1584 33.8333 16.6509C33.4708 16.0467 33.1566 15.4425 32.8666 14.8142C32.5525 14.1375 32.3108 13.5092 32.0933 12.905L19.0916 25.9067C18.2458 26.7525 17.4241 28.3475 17.255 29.5317L16.2158 36.7334C15.9983 38.2559 16.4091 39.6817 17.3516 40.6242C18.1491 41.4217 19.2366 41.8325 20.445 41.8325C20.7108 41.8325 20.9766 41.8084 21.2425 41.7842L28.42 40.7692C29.6041 40.6 31.1991 39.8025 32.045 38.9325L45.0466 25.9309C44.4425 25.7375 43.8383 25.4717 43.1616 25.1817Z" fill="#0D71EB"/>
</svg>
