<svg width="71" height="71" viewBox="0 0 71 71" fill="none" xmlns="http://www.w3.org/2000/svg">
<path opacity="0.5" d="M2.95831 35.5C2.95831 20.1598 2.95831 12.4896 7.72393 7.72399C12.4895 2.95837 20.1597 2.95837 35.5 2.95837C50.8403 2.95837 58.5104 2.95837 63.276 7.72399C68.0416 12.4896 68.0416 20.1598 68.0416 35.5C68.0416 50.8403 68.0416 58.5105 63.276 63.2761C58.5104 68.0417 50.8403 68.0417 35.5 68.0417C20.1597 68.0417 12.4895 68.0417 7.72393 63.2761C2.95831 58.5105 2.95831 50.8403 2.95831 35.5Z" fill="#2D8CFF"/>
<path d="M7.72393 63.2749C12.4895 68.0406 20.1597 68.0406 35.5 68.0406C50.8403 68.0406 58.5104 68.0406 63.276 63.2749C67.692 58.8589 68.016 51.9489 68.0398 38.7531H57.7576C54.812 38.7531 53.3393 38.7531 52.0447 39.3485C50.7501 39.9439 49.7916 41.0621 47.8747 43.2985L47.8746 43.2986L45.9045 45.5971L45.9044 45.5971C43.9875 47.8336 43.029 48.9518 41.7344 49.5472C40.4399 50.1426 38.9671 50.1426 36.0215 50.1426H34.9785C32.0329 50.1426 30.5601 50.1426 29.2655 49.5472C27.9709 48.9518 27.0124 47.8336 25.0955 45.5971L23.1253 43.2986C21.2084 41.0621 20.2499 39.9439 18.9553 39.3485C17.6607 38.7531 16.1879 38.7531 13.2423 38.7531H2.95831C2.98208 51.9489 3.30792 58.8589 7.72393 63.2749Z" fill="#2D8CFF"/>
</svg>
