<svg width="20" height="20" viewBox="0 0 20 20" fill="none" xmlns="http://www.w3.org/2000/svg">
<path d="M7.49996 14.375C7.15478 14.375 6.87496 14.6548 6.87496 15C6.87496 15.3451 7.15478 15.625 7.49996 15.625H12.5C12.8451 15.625 13.125 15.3451 13.125 15C13.125 14.6548 12.8451 14.375 12.5 14.375H7.49996Z" fill="#666668"/>
<path fill-rule="evenodd" clip-rule="evenodd" d="M9.99996 1.04163C9.40986 1.04163 8.87373 1.21064 8.29209 1.49349C7.72983 1.76691 7.08031 2.17003 6.26901 2.67356L4.54686 3.74237C3.7792 4.2188 3.1645 4.60029 2.69071 4.96313C2.20008 5.33887 1.82325 5.72154 1.55105 6.21882C1.27942 6.71506 1.1571 7.24308 1.09845 7.86721C1.04161 8.47208 1.04162 9.21172 1.04163 10.1393V11.4832C1.04161 13.0697 1.04161 14.3221 1.16888 15.3013C1.29944 16.3058 1.57376 17.1167 2.19359 17.7578C2.81628 18.4019 3.60867 18.6897 4.58963 18.8261C5.54037 18.9583 6.75459 18.9583 8.28483 18.9583H11.715C13.2453 18.9583 14.4596 18.9583 15.4103 18.8261C16.3912 18.6897 17.1836 18.4019 17.8063 17.7578C18.4262 17.1167 18.7005 16.3058 18.831 15.3013C18.9583 14.3221 18.9583 13.0698 18.9583 11.4832V10.1393C18.9583 9.21174 18.9583 8.47206 18.9015 7.86721C18.8428 7.24308 18.7205 6.71506 18.4489 6.21882C18.1767 5.72154 17.7998 5.33887 17.3092 4.96313C16.8354 4.6003 16.2207 4.21881 15.4531 3.74239L13.7309 2.67355C12.9196 2.17003 12.2701 1.76691 11.7078 1.49349C11.1262 1.21064 10.5901 1.04163 9.99996 1.04163ZM6.89956 3.75339C7.74603 3.22805 8.34121 2.85957 8.83874 2.61762C9.32348 2.3819 9.66678 2.29163 9.99996 2.29163C10.3331 2.29163 10.6764 2.3819 11.1612 2.61762C11.6587 2.85957 12.2539 3.22805 13.1004 3.75339L14.767 4.78777C15.5677 5.2847 16.1299 5.63442 16.5492 5.95554C16.9572 6.268 17.1919 6.52584 17.3524 6.819C17.5134 7.1132 17.6074 7.45717 17.6569 7.98416C17.7077 8.52378 17.7083 9.20481 17.7083 10.1699V11.4374C17.7083 13.0799 17.707 14.2509 17.5915 15.1402C17.4779 16.0136 17.2641 16.5203 16.9076 16.889C16.554 17.2548 16.0726 17.472 15.2381 17.588C14.3834 17.7069 13.2562 17.7083 11.6666 17.7083H8.33329C6.74369 17.7083 5.61649 17.7069 4.76181 17.588C3.92734 17.472 3.44591 17.2548 3.09228 16.889C2.7358 16.5203 2.52197 16.0136 2.40845 15.1402C2.29287 14.2509 2.29163 13.0799 2.29163 11.4374V10.1699C2.29163 9.20481 2.29226 8.52378 2.34297 7.98416C2.39249 7.45717 2.4865 7.1132 2.64754 6.819C2.808 6.52584 3.04273 6.268 3.45072 5.95554C3.87004 5.63442 4.4322 5.2847 5.2329 4.78777L6.89956 3.75339Z" fill="#666668"/>
</svg>
