<svg width="58" height="58" viewBox="0 0 58 58" fill="none" xmlns="http://www.w3.org/2000/svg">
<path d="M46.7142 13.7266L31.5617 5.55826C29.9667 4.68826 28.0334 4.68826 26.4384 5.55826L11.2859 13.7266C10.1742 14.3308 9.49756 15.4908 9.49756 16.8199C9.49756 18.1249 10.1742 19.3091 11.2859 19.9133L26.4384 28.0816C27.2359 28.5166 28.1301 28.7341 29.0001 28.7341C29.8701 28.7341 30.7642 28.5166 31.5617 28.0816L46.7142 19.9133C47.8259 19.3091 48.5026 18.1491 48.5026 16.8199C48.5026 15.4908 47.8259 14.3308 46.7142 13.7266Z" fill="#0D71EB"/>
<path opacity="0.4" d="M23.9491 30.9092L9.83575 23.8526C8.74825 23.3209 7.49159 23.3692 6.47659 23.9976C5.43742 24.6501 4.83325 25.7376 4.83325 26.9459V40.2617C4.83325 42.5576 6.11409 44.6359 8.16825 45.6751L22.2574 52.7317C22.7408 52.9734 23.2724 53.0942 23.8041 53.0942C24.4324 53.0942 25.0608 52.9251 25.6166 52.5867C26.6558 51.9584 27.2599 50.8468 27.2599 49.6384V36.3226C27.2841 34.0026 26.0033 31.9242 23.9491 30.9092Z" fill="#0D71EB"/>
<path opacity="0.4" d="M51.5233 23.9976C50.4842 23.3693 49.2275 23.2968 48.1642 23.8526L34.075 30.9093C32.0208 31.9484 30.74 34.0026 30.74 36.3226V49.6384C30.74 50.8468 31.3442 51.9584 32.3833 52.5868C32.9392 52.9251 33.5675 53.0943 34.1958 53.0943C34.7275 53.0943 35.2592 52.9734 35.7425 52.7318L49.8317 45.6751C51.8858 44.6359 53.1667 42.5818 53.1667 40.2618V26.9459C53.1667 25.7376 52.5625 24.6501 51.5233 23.9976Z" fill="#0D71EB"/>
</svg>
