<svg width="59" height="59" viewBox="0 0 59 59" fill="none" xmlns="http://www.w3.org/2000/svg">
<path fill-rule="evenodd" clip-rule="evenodd" d="M22.1878 17.531C22.1876 17.5207 22.1875 17.5103 22.1875 17.5V15.4166C22.1875 11.1019 25.6853 7.60413 30 7.60413C34.3147 7.60413 37.8125 11.1019 37.8125 15.4166V17.5C37.8125 17.5103 37.8124 17.5207 37.8122 17.531C40.494 17.6115 42.1349 17.9008 43.3877 18.9405C45.1235 20.3811 45.5807 22.8195 46.4951 27.6964L48.0576 36.0297C49.3434 42.8874 49.9864 46.3162 48.1119 48.5748C46.2375 50.8333 42.7489 50.8333 35.7717 50.8333H24.2282C17.251 50.8333 13.7624 50.8333 11.888 48.5748C10.0136 46.3162 10.6565 42.8874 11.9423 36.0297L13.5048 27.6964C14.4192 22.8195 14.8764 20.3811 16.6122 18.9405C17.865 17.9008 19.506 17.6115 22.1878 17.531ZM25.3125 15.4166C25.3125 12.8278 27.4112 10.7291 30 10.7291C32.5888 10.7291 34.6875 12.8278 34.6875 15.4166V17.5C34.6875 17.5 34.6875 17.4999 34.6875 17.5C34.5307 17.4999 34.3713 17.5 34.2092 17.5H25.7907C25.6287 17.5 25.4693 17.5 25.3125 17.5C25.3125 17.5 25.3125 17.5 25.3125 17.5V15.4166ZM37.2261 27.7382C37.8999 28.2773 38.0092 29.2606 37.4701 29.9344L29.1367 40.3511C28.8591 40.6982 28.4468 40.9106 28.003 40.9351C27.5593 40.9597 27.126 40.7941 26.8118 40.4799L22.6451 36.3132C22.0349 35.703 22.0349 34.7137 22.6451 34.1035C23.2553 33.4933 24.2446 33.4933 24.8548 34.1035L27.7864 37.0351L35.0299 27.9823C35.5689 27.3084 36.5522 27.1992 37.2261 27.7382Z" fill="#2D8CFF"/>
</svg>
