<svg width="58" height="58" viewBox="0 0 58 58" fill="none" xmlns="http://www.w3.org/2000/svg">
<path opacity="0.4" d="M50.75 4.83325V34.0749C50.75 38.6666 48.3333 41.0833 43.7417 41.0833H14.2583C9.66665 41.0833 7.25 38.6666 7.25 34.0749V4.83325H50.75Z" fill="#0D71EB"/>
<path d="M53.1666 6.64575H4.83325C3.84242 6.64575 3.02075 5.82409 3.02075 4.83325C3.02075 3.84242 3.84242 3.02075 4.83325 3.02075H53.1666C54.1574 3.02075 54.9791 3.84242 54.9791 4.83325C54.9791 5.82409 54.1574 6.64575 53.1666 6.64575Z" fill="#0D71EB"/>
<path d="M40.2858 53.9882C39.9716 54.6166 39.3191 54.9791 38.6666 54.9791C38.4007 54.9791 38.1108 54.9066 37.8691 54.7858L28.9999 50.3632L20.1307 54.7858C19.889 54.9066 19.5991 54.9791 19.3332 54.9791C18.6807 54.9791 18.0282 54.6166 17.714 53.9882C17.2549 53.0699 17.6174 51.9824 18.5358 51.5474L27.1874 47.2216V41.0833H30.8124V47.2216L39.464 51.5474C40.3824 51.9824 40.7449 53.0699 40.2858 53.9882Z" fill="#0D71EB"/>
<path d="M18.1249 28.3959C17.6174 28.3959 17.0858 28.1784 16.7233 27.7434C16.0708 26.9701 16.1915 25.8343 16.9649 25.1818L24.5774 18.8259C25.2783 18.2459 26.1724 18.0043 27.0182 18.1493C27.8882 18.2943 28.6374 18.8259 29.0966 19.5992L31.6341 23.8284L38.7149 17.9318C39.4882 17.2793 40.624 17.4 41.2765 18.1734C41.929 18.9467 41.8083 20.0825 41.0349 20.735L33.4224 27.0909C32.7215 27.6709 31.8274 27.9125 30.9816 27.7675C30.1116 27.6225 29.3624 27.0909 28.9032 26.3176L26.3657 22.0884L19.2849 27.985C18.9466 28.2509 18.5357 28.3959 18.1249 28.3959Z" fill="#0D71EB"/>
</svg>
