<svg width="58" height="58" viewBox="0 0 58 58" fill="none" xmlns="http://www.w3.org/2000/svg">
<path opacity="0.4" d="M41.0835 44.5392H31.4168L20.6626 51.6926C19.0676 52.7559 16.9168 51.6201 16.9168 49.6867V44.5392C9.66683 44.5392 4.8335 39.7059 4.8335 32.4559V17.9559C4.8335 10.7059 9.66683 5.87256 16.9168 5.87256H41.0835C48.3335 5.87256 53.1668 10.7059 53.1668 17.9559V32.4559C53.1668 39.7059 48.3335 44.5392 41.0835 44.5392Z" fill="#0D71EB"/>
<path d="M28.9999 29.2659C28.009 29.2659 27.1874 28.4442 27.1874 27.4534V26.946C27.1874 24.1426 29.2415 22.7651 30.0148 22.2334C30.909 21.6293 31.199 21.2185 31.199 20.5901C31.199 19.3818 30.2082 18.3909 28.9999 18.3909C27.7915 18.3909 26.8008 19.3818 26.8008 20.5901C26.8008 21.581 25.9791 22.4026 24.9883 22.4026C23.9974 22.4026 23.1758 21.581 23.1758 20.5901C23.1758 17.376 25.7857 14.7659 28.9999 14.7659C32.2141 14.7659 34.824 17.376 34.824 20.5901C34.824 23.3451 32.7941 24.7226 32.0449 25.2301C31.1024 25.8584 30.8124 26.2693 30.8124 26.946V27.4534C30.8124 28.4684 29.9907 29.2659 28.9999 29.2659Z" fill="#0D71EB"/>
<path d="M29 35.2832C27.985 35.2832 27.1875 34.4615 27.1875 33.4707C27.1875 32.4799 28.0092 31.6582 29 31.6582C29.9908 31.6582 30.8125 32.4799 30.8125 33.4707C30.8125 34.4615 30.015 35.2832 29 35.2832Z" fill="#0D71EB"/>
</svg>
