<svg width="59" height="59" viewBox="0 0 59 59" fill="none" xmlns="http://www.w3.org/2000/svg">
<path d="M44.25 31.9534H31.9583V44.2451C31.9583 44.8971 31.6993 45.5224 31.2383 45.9834C30.7773 46.4444 30.152 46.7034 29.5 46.7034C28.848 46.7034 28.2227 46.4444 27.7617 45.9834C27.3007 45.5224 27.0417 44.8971 27.0417 44.2451V31.9534H14.75C14.098 31.9534 13.4727 31.6944 13.0117 31.2334C12.5507 30.7724 12.2917 30.1471 12.2917 29.4951C12.2917 28.8431 12.5507 28.2178 13.0117 27.7568C13.4727 27.2957 14.098 27.0367 14.75 27.0367H27.0417V14.7451C27.0417 14.0931 27.3007 13.4678 27.7617 13.0068C28.2227 12.5457 28.848 12.2867 29.5 12.2867C30.152 12.2867 30.7773 12.5457 31.2383 13.0068C31.6993 13.4678 31.9583 14.0931 31.9583 14.7451V27.0367H44.25C44.902 27.0367 45.5273 27.2957 45.9883 27.7568C46.4493 28.2178 46.7083 28.8431 46.7083 29.4951C46.7083 30.1471 46.4493 30.7724 45.9883 31.2334C45.5273 31.6944 44.902 31.9534 44.25 31.9534Z" fill="#2D8CFF"/>
</svg>
