<svg width="19" height="19" viewBox="0 0 19 19" fill="none" xmlns="http://www.w3.org/2000/svg">
<path opacity="0.4" d="M8 14C11.3137 14 14 11.3137 14 8C14 4.68629 11.3137 2 8 2C4.68629 2 2 4.68629 2 8C2 11.3137 4.68629 14 8 14Z" fill="#2D8CFF"/>
<path d="M16.3856 17.1392C16.1644 17.1392 15.9432 17.0531 15.7834 16.8932L12.7488 13.6392C12.417 13.3071 12.417 12.9835 12.7488 12.6392C13.0806 12.3071 13.4048 12.3071 13.7489 12.6392L16.7488 15.6392C17.0806 15.9712 17.3318 16.5488 17 16.8932C16.828 17.0531 16.6068 17.1392 16.3856 17.1392Z" fill="#2D8CFF"/>
</svg>
