<svg width="20" height="20" viewBox="0 0 20 20" fill="none" xmlns="http://www.w3.org/2000/svg">
<path fill-rule="evenodd" clip-rule="evenodd" d="M13.29 1.04163H15.0434C15.7921 1.0416 16.4164 1.04158 16.9121 1.10822C17.4352 1.17856 17.9076 1.33328 18.2871 1.71284C18.6667 2.0924 18.8214 2.56473 18.8918 3.08789C18.9584 3.58355 18.9584 4.2079 18.9584 4.95663V6.70996C18.9584 7.45869 18.9584 8.08304 18.8918 8.57869C18.8214 9.10186 18.6667 9.57419 18.2871 9.95375C17.9076 10.3333 17.4352 10.488 16.9121 10.5584C16.4164 10.625 15.7921 10.625 15.0434 10.625L14.7917 10.625L14.7917 10.8766C14.7917 11.6254 14.7917 12.2497 14.7251 12.7454C14.6548 13.2685 14.5 13.7409 14.1205 14.1204C13.7409 14.5 13.2686 14.6547 12.7454 14.725C12.2498 14.7917 11.6254 14.7917 10.8767 14.7916L10.625 14.7916L10.625 15.0433C10.625 15.792 10.6251 16.4164 10.5584 16.912C10.4881 17.4352 10.3334 17.9075 9.95381 18.2871C9.57425 18.6666 9.10192 18.8214 8.57875 18.8917C8.0831 18.9583 7.45875 18.9583 6.71002 18.9583H4.95669C4.20796 18.9583 3.58361 18.9583 3.08796 18.8917C2.56479 18.8214 2.09246 18.6666 1.7129 18.2871C1.33334 17.9075 1.17862 17.4352 1.10828 16.912C1.04164 16.4164 1.04166 15.792 1.04169 15.0433V13.29C1.04166 12.5412 1.04164 11.9169 1.10828 11.4212C1.17862 10.8981 1.33334 10.4257 1.7129 10.0462C2.09246 9.66662 2.56479 9.51189 3.08796 9.44155C3.58361 9.37491 4.20796 9.37494 4.95669 9.37496L5.20836 9.37496L5.20835 9.1233C5.20833 8.37456 5.20831 7.75021 5.27495 7.25456C5.34529 6.7314 5.50001 6.25907 5.87957 5.87951C6.25913 5.49995 6.73146 5.34522 7.25462 5.27489C7.75028 5.20825 8.37462 5.20827 9.12336 5.20829L9.37502 5.20829L9.37502 4.95663C9.375 4.2079 9.37498 3.58355 9.44161 3.08789C9.51195 2.56473 9.66668 2.0924 10.0462 1.71284C10.4258 1.33328 10.8981 1.17856 11.4213 1.10822C11.9169 1.04158 12.5413 1.0416 13.29 1.04163ZM9.37502 6.45829H9.16669C8.36335 6.45829 7.82371 6.45962 7.42118 6.51374C7.03663 6.56544 6.87205 6.65479 6.76345 6.76339C6.65486 6.87199 6.5655 7.03657 6.5138 7.42112C6.45968 7.82365 6.45836 8.36328 6.45836 9.16663V10.8333C6.45836 11.6366 6.45968 12.1763 6.5138 12.5788C6.5655 12.9634 6.65486 13.1279 6.76345 13.2365C6.87205 13.3451 7.03663 13.4345 7.42118 13.4862C7.82371 13.5403 8.36335 13.5416 9.16669 13.5416H10.8334C11.6367 13.5416 12.1763 13.5403 12.5789 13.4862C12.9634 13.4345 13.128 13.3451 13.2366 13.2365C13.3452 13.1279 13.4345 12.9634 13.4862 12.5788C13.5404 12.1763 13.5417 11.6366 13.5417 10.8333V10.625L13.29 10.625C12.5413 10.625 11.9169 10.625 11.4213 10.5584C10.8981 10.488 10.4258 10.3333 10.0462 9.95375C9.66668 9.57419 9.51195 9.10186 9.44161 8.57869C9.37498 8.08304 9.375 7.45869 9.37502 6.70996L9.37502 6.45829ZM5.20836 10.625H5.00002C4.19668 10.625 3.65705 10.6263 3.25452 10.6804C2.86996 10.7321 2.70538 10.8215 2.59679 10.9301C2.48819 11.0387 2.39884 11.2032 2.34713 11.5878C2.29302 11.9903 2.29169 12.53 2.29169 13.3333V15C2.29169 15.8033 2.29302 16.3429 2.34713 16.7455C2.39884 17.13 2.48819 17.2946 2.59679 17.4032C2.70538 17.5118 2.86996 17.6011 3.25452 17.6528C3.65705 17.707 4.19668 17.7083 5.00002 17.7083H6.66669C7.47003 17.7083 8.00966 17.707 8.4122 17.6528C8.79675 17.6011 8.96133 17.5118 9.06992 17.4032C9.17852 17.2946 9.26787 17.13 9.31958 16.7455C9.37369 16.3429 9.37502 15.8033 9.37502 15V14.7916L9.12336 14.7916C8.37462 14.7917 7.75027 14.7917 7.25462 14.725C6.73146 14.6547 6.25913 14.5 5.87957 14.1204C5.50001 13.7409 5.34529 13.2685 5.27495 12.7454C5.20831 12.2497 5.20833 11.6254 5.20835 10.8766L5.20836 10.625ZM11.5878 2.34707C11.2033 2.39878 11.0387 2.48813 10.9301 2.59672C10.8215 2.70532 10.7322 2.8699 10.6805 3.25445C10.6263 3.65699 10.625 4.19662 10.625 4.99996V6.66663C10.625 7.46997 10.6263 8.0096 10.6805 8.41213C10.7322 8.79668 10.8215 8.96127 10.9301 9.06986C11.0387 9.17846 11.2033 9.26781 11.5878 9.31951C11.9904 9.37363 12.53 9.37496 13.3334 9.37496H15C15.8034 9.37496 16.343 9.37363 16.7455 9.31951C17.1301 9.26781 17.2947 9.17846 17.4033 9.06986C17.5119 8.96127 17.6012 8.79668 17.6529 8.41213C17.707 8.0096 17.7084 7.46997 17.7084 6.66663V4.99996C17.7084 4.19662 17.707 3.65699 17.6529 3.25445C17.6012 2.8699 17.5119 2.70532 17.4033 2.59672C17.2947 2.48813 17.1301 2.39878 16.7455 2.34707C16.343 2.29296 15.8034 2.29163 15 2.29163H13.3334C12.53 2.29163 11.9904 2.29296 11.5878 2.34707Z" fill="#334D6E"/>
</svg>
