<svg width="107" height="16" viewBox="0 0 107 16" fill="none" xmlns="http://www.w3.org/2000/svg">
<path d="M61.7963 5.78721C61.7446 5.62591 61.6088 5.51069 61.4439 5.48436L56.5291 4.7733L54.3174 0.246895C54.243 0.0954657 54.0911 0 53.9262 0V0C53.7613 0 53.6093 0.0954656 53.5349 0.250187L51.3524 4.78976L46.4376 5.53374C46.2726 5.56007 46.1368 5.67529 46.0851 5.83659C46.0334 5.9979 46.0786 6.17566 46.1983 6.29088L49.7647 9.80995L48.9402 14.7939C48.9111 14.9618 48.979 15.1297 49.1148 15.2285C49.1892 15.2844 49.2797 15.3141 49.3703 15.3141C49.4414 15.3141 49.5093 15.2976 49.574 15.2614L53.9617 12.8945L58.3624 15.2351C58.4271 15.268 58.495 15.2844 58.5629 15.2844V15.2844C58.8022 15.2844 58.9994 15.0836 58.9994 14.84C58.9994 14.8038 58.9962 14.7709 58.9865 14.738L58.1361 9.78362L61.6799 6.24479C61.806 6.12628 61.848 5.94852 61.7963 5.78721Z" fill="#F9B01B"/>
<path d="M106.979 5.78721C106.927 5.62591 106.791 5.51069 106.626 5.48436L101.711 4.7733L99.4998 0.246895C99.4254 0.0954657 99.2734 0 99.1085 0V0C98.9436 0 98.7917 0.0954656 98.7173 0.250187L96.5347 4.78976L91.6199 5.53374C91.455 5.56007 91.3192 5.67529 91.2675 5.83659C91.2157 5.9979 91.261 6.17566 91.3807 6.29088L94.9471 9.80995L94.1226 14.7939C94.0935 14.9618 94.1614 15.1297 94.2972 15.2285C94.3716 15.2844 94.4621 15.3141 94.5526 15.3141C94.6238 15.3141 94.6917 15.2976 94.7563 15.2614L99.1441 12.8945L103.545 15.2351C103.609 15.268 103.677 15.2844 103.745 15.2844V15.2844C103.985 15.2844 104.182 15.0836 104.182 14.84C104.182 14.8038 104.179 14.7709 104.169 14.738L103.318 9.78362L106.862 6.24479C106.988 6.12628 107.03 5.94852 106.979 5.78721Z" fill="#F9B01B"/>
<path d="M39.2048 5.78721C39.153 5.62591 39.0172 5.51069 38.8523 5.48436L33.9375 4.7733L31.7258 0.246895C31.6515 0.0954657 31.4995 0 31.3346 0V0C31.1697 0 31.0177 0.0954656 30.9434 0.250187L28.7608 4.78976L23.846 5.53374C23.6811 5.56007 23.5453 5.67529 23.4936 5.83659C23.4418 5.9979 23.4871 6.17566 23.6067 6.29088L27.1732 9.80995L26.3487 14.7939C26.3196 14.9618 26.3875 15.1297 26.5233 15.2285C26.5976 15.2844 26.6882 15.3141 26.7787 15.3141C26.8498 15.3141 26.9178 15.2976 26.9824 15.2614L31.3702 12.8945L35.7709 15.2351C35.8355 15.268 35.9034 15.2844 35.9713 15.2844V15.2844C36.2106 15.2844 36.4078 15.0836 36.4078 14.84C36.4078 14.8038 36.4046 14.7709 36.3949 14.738L35.5445 9.78362L39.0884 6.24479C39.2145 6.12628 39.2565 5.94852 39.2048 5.78721Z" fill="#F9B01B"/>
<path d="M84.3869 5.78721C84.3351 5.62591 84.1993 5.51069 84.0344 5.48436L79.1196 4.7733L76.908 0.246895C76.8336 0.0954657 76.6816 0 76.5167 0V0C76.3518 0 76.1999 0.0954656 76.1255 0.250187L73.9429 4.78976L69.0281 5.53374C68.8632 5.56007 68.7274 5.67529 68.6757 5.83659C68.624 5.9979 68.6692 6.17566 68.7889 6.29088L72.3553 9.80995L71.5308 14.7939C71.5017 14.9618 71.5696 15.1297 71.7054 15.2285C71.7798 15.2844 71.8703 15.3141 71.9608 15.3141C72.032 15.3141 72.0999 15.2976 72.1645 15.2614L76.5523 12.8945L80.953 15.2351C81.0177 15.268 81.0856 15.2844 81.1535 15.2844V15.2844C81.3927 15.2844 81.59 15.0836 81.59 14.84C81.59 14.8038 81.5867 14.7709 81.577 14.738L80.7266 9.78362L84.2705 6.24479C84.3966 6.12628 84.4386 5.94852 84.3869 5.78721Z" fill="#F9B01B"/>
<path d="M16.6137 5.78721C16.562 5.62591 16.4262 5.51069 16.2612 5.48436L11.3464 4.7733L9.13478 0.246895C9.06042 0.0954657 8.90844 0 8.74354 0V0C8.57864 0 8.42666 0.0954656 8.3523 0.250187L6.16974 4.78976L1.25494 5.53374C1.09003 5.56007 0.954227 5.67529 0.902492 5.83659C0.850757 5.9979 0.896025 6.17566 1.01566 6.29088L4.58213 9.80995L3.7576 14.7939C3.7285 14.9618 3.7964 15.1297 3.93221 15.2285C4.00658 15.2844 4.09711 15.3141 4.18765 15.3141C4.25878 15.3141 4.32669 15.2976 4.39135 15.2614L8.77911 12.8945L13.1798 15.2351C13.2445 15.268 13.3124 15.2844 13.3803 15.2844V15.2844C13.6195 15.2844 13.8168 15.0836 13.8168 14.84C13.8168 14.8038 13.8135 14.7709 13.8038 14.738L12.9535 9.78362L16.4973 6.24479C16.6234 6.12628 16.6654 5.94852 16.6137 5.78721Z" fill="#F9B01B"/>
</svg>
