<svg width="58" height="58" viewBox="0 0 58 58" fill="none" xmlns="http://www.w3.org/2000/svg">
<path opacity="0.4" d="M49.5417 24.6258H42.5576C36.8301 24.6258 32.1659 19.9616 32.1659 14.2341V7.24992C32.1659 5.92075 31.0784 4.83325 29.7492 4.83325H19.5026C12.0592 4.83325 6.04175 9.6666 6.04175 18.2941V39.7057C6.04175 48.3332 12.0592 53.1666 19.5026 53.1666H38.4976C45.9409 53.1666 51.9584 48.3332 51.9584 39.7057V27.0424C51.9584 25.7133 50.8709 24.6258 49.5417 24.6258Z" fill="#0D71EB"/>
<path d="M38.1835 5.34078C37.1926 4.34995 35.4768 5.02659 35.4768 6.40409V14.8383C35.4768 18.3666 38.4735 21.2908 42.1226 21.2908C44.4185 21.3149 47.6085 21.315 50.3393 21.315C51.7168 21.315 52.4418 19.6958 51.4751 18.7291C47.9951 15.2249 41.7601 8.91745 38.1835 5.34078Z" fill="#0D71EB"/>
<path d="M35.67 46.5449C29.9909 46.9558 29.9909 55.1725 35.67 55.5833H49.1067C50.7258 55.5833 52.3208 54.9791 53.505 53.8916C57.4925 50.4116 55.3658 43.4516 50.1217 42.7991C48.2367 31.465 31.8517 35.7666 35.7184 46.5691" fill="#0D71EB"/>
</svg>
